<mxfile host="app.diagrams.net" agent="Mozilla/5.0 (Windows NT 10.0; Win64; x64) AppleWebKit/537.36 (KHTML, like Gecko) Chrome/133.0.0.0 Safari/537.36" version="26.0.14">
  <diagram name="Page-1" id="SRPHPlTKVba4HUuQkpXr">
    <mxGraphModel dx="1750" dy="730" grid="1" gridSize="10" guides="1" tooltips="1" connect="1" arrows="1" fold="1" page="1" pageScale="1" pageWidth="827" pageHeight="1169" math="0" shadow="0">
      <root>
        <mxCell id="0" />
        <mxCell id="1" parent="0" />
        <mxCell id="OgK19WpjJ4sju14JBqMn-1" value="" style="shape=image;verticalLabelPosition=bottom;labelBackgroundColor=default;verticalAlign=top;aspect=fixed;imageAspect=0;image=data:image/png,iVBORw0KGgoAAAANSUhEUgAABEMAAAJGCAYAAACwQUtrAAAAAXNSR0IArs4c6QAAAARnQU1BAACxjwv8YQUAAAAJcEhZcwAADsMAAA7DAcdvqGQAAPNFSURBVHhe7N11eBTX1wfw7+xu3J0IECS4S7Dg7i7FW9yhxVocWqS4tHiLu7u7E4IGAoQQiLttNlmb8/7BZn7JJlBo6VvanE+ffWhm7ty5I3vnztk7dwQiIjDGGGOMMcYYY4zlEzLjCYwxxhhjjDHGGGP/ZRwMYYwxxhhjjDHGWL7CwRDGGGOMMcYYY4zlKxwMYYwxxhhjjDHGWL7CwRDGGGOMMcYYY4zlKxwMYYwxxhhjjDHGWL7CwRDGGGOMMcYYY4zlKwIRkfHEP+tn/y3GkxhjjDHGGGOMMcY+q4nV+hpP+iSfNRhSYFsb40mMMcYYY4wxxhhjn1V072PGkz7JZw2GuG1rbTyJMcYYY4wxxhhj7LOK6X3ceNIn4TFDGGOMMcYYY4wxlq9wMIQxxhhjjDHGGGP5CgdDGGOMMcYYY4wxlq9wMIQxxhhjjDHGGGP5CgdDGGOMMcYYY4wxlq9wMIQxxhhjjDHGGGP5CgdDGGOMMcYYY4wxlq9wMIQxxhhjjDHGGGP5CgdDGGOMMcYYY4wxlq9wMIQxxhhjjDHGGGP5CgdDGGOMMcYYY4wxlq9wMIQxxhhjjDHGGGP5CgdDGGOMMcYYY4wxlq9wMIQxxhhjjDHGGGP5yj8aDJEJMpjJTT74MZWZQCYIEAQBprKsaQoIEIyz+6xkggymhjKYyBTGs/9RCpk8134yk5tAIcj/9v2SnQDAXG4KK4UFrBTm//h+EiDAQm4GWxMr2JpawdrEAqb/cJkYY4wxxhhjjH15BCIi44l/ltu21saTPsjXpQwGl27/wZtorV6HVU/3IUWjxHcVesLGxBIJmalY/mQ33iijjZN/FgKAMg5FMaZcN5jJTRCY9BoLH27DZ9tRf4EAAX18mqOxZ3XjWYhWJSIiPRb34p/jbtwzaEStcZLPSibIML/6MPi6lIGWdNjy8iS2vjxlnOz/hbulE9oVrosWXjVRxMYDCpkcqZp0PEoMxsHQyzgdftt4EcYYY4wxxhhj/1IxvY8bT/ok/1gwRADQwbs+ltYcC3OFqfFsA4JGr8Xgq/MRr07FlvrT4WhugyhVPPpdmoNHia+MF/gsBAio514Jm+pPhbncDNdjHqHruSmgLyAcIggC5lUfiv4lWhv2YpZ3ZSMiZOo1OPTmCr69tQKf8fDmIhNk2NlwFup7VIFW1GLp491Y8nincbK/lYB3vYa21J+GRp7VIBNk0l4x7BGkazOx7MlurArc90UcQ8YYY4wxxhhjf81fDYb8o4/JAIAgvLulV2pVuBMbiKvRD7J9HuJazCPEZ6a8u8EV3t385gwC/E/WjbEgCO/+P6/5ec55/7ys8r379395v8+70uUsR87571uT8Tzjue+8m/q/fRCTkYBr0Q/wMCEYMRlJIACWCnN0L9oY6+t+D0cz21zLf6h82Uklee8+JZwIu4n1QYexMegoAuKDcszNvWzO//6XLvu2517uQwQBmFqpP+p7VIFMkEGly8Tp8NvY9OI4nie/AQBYm1hgYMl2KOtQ1HhxxhhjjDHG/t8Yt4PfTXs3/d8ge7s95/S8pn45su4vsoZf+DtK+r5980/7/9j2f6t/vGfIslpjYSY3xavUcAy5tgBv0nI++kIAMnVqVHIugS0NpsPJzBaRqnj0uzRb6hkiQICFwgy9ijdHY49qcDSzRZo2HafD72B90GEAgIu5PXr7tIC1wgJqUYt9ry/gVWoEBAAWCjMMKtUBdiZW0IhanAy/CXtTG2yqPxUWCjNcj36MCbdXYnyFnvCxK4goVQI2vTiOi5EBOXoaCBBQzNYTw8p0Qim7wjCVmyA0LRI7X53Dxch7IBDqu1eCn1tFyAU54jKTsOnFCWTo1RAgoJpLKTT19IVckCFJnYZVT/dJeWeRCQLmVh9m6BlCuBh5D4OvLoCJTAFbUysMKd0BfX1aQiHIka7LxJS7a7Dr1VmQoXxe1i4YXKoDKjn5wExugjBlDLYFn8GlPLalpls59CneHEVtvSATBMRkJOJw6BUcDL0MPYkQIKCdd11UcCgGkURcjr6Pa9GP3i0vCGhfqC6+Kt4U9qY2eJkSho0vjqKsfVEUtfFApl6NPa/P401aNBp4VEVdt4oAgKsxD+Bq7ogexZrAQmGGZ8mhWP5kN0KNzosshazdsK/JXBSydgMRsC34FGYF/IYMXSbqFKiI9XUnw97UGjpRj2HXF+LIm6vGWTDGGGOMMfa3K2LjgTlVB2H36/M4+uaaNH102a4oblcQU/3XIlWTnmOZL82Q0h3QoXA9HAi9hA1BR6X7hzFlu6KEfWHMCtiI2Iwk48X+tHe37cJf6t1tZ2qNSRV7w69ARcgEAQmZqZj7YDPuxD79S/ka61G0CToWaYDp/uvxPOXdj7L/NDtTa4wu1xWN3KvCVG6CTJ0a+0MvYX3QEWhFnXHyT5IVVPkc+/BdXp+e07++Z8j/EFQ6NdK0qhwfpVYFHemNE+fgY+eFvU1+xOyqA9HQowoqOhVHnQIVMbvaQJxptQwVnIojXp0MS4UZBpVqhzHluuHHaoPhYGYDc4UZplTujwkVemJ4mU6o6lIqR0BGgAA3C0ccab4QnYo0RAXH4mjmVQOb60/DlMr9YCE3AwwBla9LtMaR5j+jV/HmqOZSChUci6Ft4brY0mAaVtYeB1cLBzxMCEY1l9IYXrYTJlbsg4Gl2kEhyOFq4YDZVQdhVNmuGFiqHaxMLP44ZkeASIQ0rQqJ6lS8SYvGlLtrcTHyHkQiWMhN0cSzOgABZnJT9CjWBCeaL8GgUu3g61IGFR190LqQHzbXn4rFNUfBydCLxM7UCj9VH4JdjWajc5GGqOzkg4qOxdHM0xfLa43DpgbT4GrhAEEQ0MKrBoaX6YyhZTrC16UsBAiwN7PB0ppjsLLOt2jgXgWVnHzQpWhD/F5vCoaV6YjhZTthQKl2KGztDkCAn1sFDC/bCcPLdsJ35XtiQY3hqO1WHpWdSuCrYk2xoe4PKGLjYbz1AAC5IEdA/HNciLyH+wnPcSb8DpRaFUQSodZrpMeEBAE8mCpjjDHGGPvHWMhNUdK+MJzN7KQbSQGAp5ULitt6QiHIjRf5otiYWKJd4boobuuFTt4NYW1iIc3zsHJBcVuvD44F+WeMK98D51uvRCFrN+NZH0UA8EOlvmjuVQOXIwNwMPQyTGUKLK81DuUcP2+vcaUuAzGqBGj/5nEbP5aNiSXm+w5DZ+8GuBv/DLtDziMw+TWGl+mEqZX7QyH78+ebpcIch5stwPgKPSET/vCu9YMGlmyL6+3Wooht3vd7fyf5zJkzZxpP/LMWPdphPOm9BACl7L3RomBNmMjkSFSn4XDoFSRrlP97REJ4l1IwfME6eteHpcIMaVoVDoVeRmxGEgpZu+GXOuNR2akEBEFASGoEDr6+DLlMDldzB7haOMDTyhVH3lxFcGoEqruUgaeVMzytXKEXRTiY2eDb8l/BQmGGNJ0KM+5twPOUMBS2LoAO3vVgIlPAwcwaAoB78UFQ6jLgZGYLuUyO4rZeCEp5i5C0CLQvXBdzqg+Gnak1iEQ8TX6NFylv4WxuDzO5CYrbFoSJTIGzEXeQrFGiqacvLE3MUMahCILTwtGzWFM09fKFDALuxj3DzICNUOnUxrsNgiCgsWd1VHIqAQB4nRaJA6GXcqRxMLOBX4GKUMjk0Il6bA0+hdpu5bGwxgi4mNtDTyJuxD7G5agH8LRyho2pJUrZF0amXoO78c9Q06UsJlfqAyuFBTL0amwLPo2z4XdQxqEILE3MUMTGHVpRj7txz9CiYA2UtveGCMKt2Ce4HReIzt4NMLJsV5jKTaAnPc5F+uNmzBOUsi8Md0tnyAQZ1HoNjr69jjfKaNRzrwRf13eBFBdzeyRkpuBp8ms4mdnBRKaAo5ktRCJcjgrIsZ0AkKJJw/G3N3D0zVUcD7uJl6nhEElEAUsnTKv8NUrbe0MQBKTrMrHl5UmEpccaZ8EYY4wxxtjfzsXcHp2868M//hkeJLwEDHc6TTyrw83CCQdCLyFTr0FBKzeMLNsF35Rsi+oupfA6LQopGiUKWxfA2HLdUMDCEUNKd0QzT19EqOJQ2akEJlTohUYe1RCRHoe4zGQIEFDCriDGlu+BPj4t4GNXEK9SI6DSZRgX66M18ayOrkUb4UbMY1R1KYW7cc+kF1o09awOTysXWCjMMLhUe1RyLoHApBBkGO5nnMztMKhUOwwt3RF1C1REhCoO8ZkpMJEpMKFCTxBEhKXHQoCAyRX7QC6To5itJ3r7tEAh6wIoaO2GwtYF4B+X87H8PyJAwNTKX+NmbCCm+K/BjZgnOBfpj3aF68LaxAKXowIgQEADj8r4tvxX6OTdEOYKUzxPfgMCYUjpDqjiXBIN3augpms5lHUoipYFa+J5yluk6zIhQMDQ0h3hV6AiYjIS4WRhh/vxL5CqSYeXlStGl+uKr0u2QS23sohSJSI+MxkwvEjk2wpfoWuRhvCydkVQcii0oh5mclN0K9oIo8p2QbvCdWGhMMOLlDCIJBpv2h/qWrQhehVvgXkPtmD5k924HfsUZyPuoICFEzp418P1mEeIyUiCn1tFjCvfA92LNoGDmY309EVlJx/09mkBb2t3DC/bCY3cqyJMFYtEdQomVOwNvwIV4GRui/KOxZCkTkOiOgUdvetjdLmuaFPIDxYKcwSnhEFvKHsTz+oYW747OhdpBFdzB7xKi0B151L4umQbeNt4wNPSBUVtPHAn7pnRlrzfhAq9jCd9ki+mZ0gxW09cbbsGET0PS5/wnkdwuc0vxkn/RxDg61IG5R2LQRBkCFPG4psrczHt3jrpMRqZIEM151Ko614Z4emxWPJkJ2IzkmEqM0G/Ei0xsUJvWJtYQKXLxPIne949+mL05FCmXoNp99ah07kf0Pj4KNyMeQIAsDezQdvCdeBoaosuRRrBSmEBkd6No9Hq1Hfoen4qfrz/OzJ0apjKFWhTqA6cze1xOvw2Nj4/Co1eB2dzO0yp1B8dvOtBLsgQoYrDT/c3ISEzJUcZPh7hceIr6MR3vWkczWyhkMnR2bsBHE1toScRR0Kvotu5qZh05xcMufYzktRKmMgUaFmwFkxlJvC2dYe5ocfLk8QQzLq3EUuf7MbPD7chTBmL8PQ4eFm5wlxuYrTud6/abVOoDkzlCogk4uiba+h3aTYm3vkF0++tR4Yu03iRHCJUceh9aRa6n5+OA6GXQCAoZHJUdCoudZTLjgwdqjSiDomZqbA2scCAUm1wpuVyNPasBkEAVLpM7H19QTpujDHGGGOM/VNMZaZwMLOBo5ktHMxsIBfkUiu3oLUrfvEbjy5F3/W8aOxZHRvqfQ9XCwc4m9ujfeF6GF6mM2xNLFHdpTTW+k3CzKoDYS43Rd0CFTHfdzjsTK1Q1qEI1tX9Hg3dq8BaYYHexVtgvu9wyP9kbwCFIEdNt7JI1ShxKPQKlNoMVHUuCbnwv9vJ4rZe6F6sCSwV5mhVsBb2Nv4J3jbuMJeb4qdqQzCwZDvYmljB16UstjechXrulaCQydG6YG0Utyso7YPWheqglH1h2Jlaw9HMFmZyExS2LgAPS2dpXZ8iPjMFpewLoaR9IbhaOCA2Iwldzv2A2QG/QSbI0L1YE6yqPR7Fbb3gaG6LGVW+wdjyPSATZGjoXgVjynVFu8J+KGjtCiuFGfr4tEBZhyIQIKCkfUF8XbI13Cwc4WXlig6F6sLJ3A5O5nZYWmsMuhRtCFsTSzRwr4Jf64xHCbuCqO5SGitqf4uKjsXhYGaLsWW7Y3LFvjCVm6CFVw1MrdwfXlZucLd0wuyqg9CzWFOpJ9HHkgsy+LlVRGxGIm7GPgERgUDQiXrseHUWvz0/iiR1GloWrIlf/cajrGNR2JlaYXyFXvilznhYKsxQ2MYd/XxaYWTZLjCXm6GmWzmsqDUOha0LwMsQ+HI1d4C3jQesTSzQs1hzzKw6EF5WbvCwdMbcakPQvVgTyAQZ2hX2w4ra41Davgicze0wrnx3fFf+K9iZWcPJ/N0P4IVt/vwx/rO+mGCIgHeDusgE2f8+eNdDJK+bYECAXJChnGNRyAU5QIR0XQY6ezfA5Ip9MKRUB+mxCCsTczRwrwwyjLGx/MluZOrVcDa3RzFbT4hEOB/hj/VBR3I9qUQghKRFYE/IBYgkGoIdN6AT9ZAJAorYuMPW1BKFbd513VLpMrH/9UVk6jUgEnEt+iGiMxIMvR4c0MzTF0SEJY934nJUAIiAEnYFYW9qg3RtJlY82Qt/o4FIP93/toFAUAhylLArCEEQoBf1sFCYY3LFPphcsQ9aFawFPekBCIYuel6IUiVAZ3iGrIy9N5bVGosx5bohU6/G8OsL0fXcFMwO+A3KPCLLCpkcXlauECAgQ6fG6fDbEIlAJOJm7BNEquKNF5EQgOfJbxGSGgG1XoMnSSHSpsj/oPuVAAENPapgY90fMKPKALhaOAAA4jKSMOf+75juvz7XsWWMMcYYY+z/k0yQoVfxZtjSYDq2NJiGLQ2mo757ZcBwx9PMyxdeli4Yc2MZup2bin6X5sBEpsDosl0hCICJTIHjYTcw6Op8/HB3DRxMbbDr1VkMvDoP8x9ugZuFAywUZuhUpAH0JKLnxRnofmEaxt9egfIOReHrUuaTb6wBoIClE+q4VcCt2ECcj7yLO7GB8CtQERaKdz+gAkCqNh2T7/yK7hem4fu7q+Fh5YxWBWuhRcGaqO5SBpPu/IIu56agx4VpiMtMQveiTd6VRRrU8125skp3KPQKDoReRpQqAUOvL8RU/7Wf3J4nEH56sAlJ6jTsazIXOxrNwqIaI+HrUgZyQQZXC0f08WmB6zGP8dWF6fjq/DQcDL2MXsWbwdvaHYIg4FVqBHpdnIlvb63AgdDLSNWko5ZreQgCUNKuMKwVlrgUFQBNtsdj2haug0LWBdD34mx0PvcDvrowHYnqVNQpUBHDy3TG67QIdD8/Dd3PT8W6oMNo6FEFNiYWqO1WHrEZSehxYRq6n5+Gva/Po6itp+Ge+OPZm9nA3dIZ8ZkpUGozcuy1p0mvsezJHqj0mRhUqj2ep7xFn4sz0ePCdKx5dhCNPaqhhms5CBCgJz0m3vkFA678hIUPt8Pd0gkFrdww4fYqhKRG4uCby/jqwjRciboPJ3Nb7Hp1Dt3OT0X3C9NwJ+4pmnr6QiHI0b9Ea9yLe44e56ehy7kf8OvTAyjjUAR3Yp9i28tTSMxMwcjrizH57upPPsZ/xRcTDInNTMLO4DPYGHT0f5/nx7Dv9cUcN/fZyQUZPCxd3r3pRRBQyq4wRpbtgpFlu2BI6Y4obe8NIoIAATYKSwAAEXA6/DaeJ7+V8lFqVdj08jg0ek223P8nWa2UeloAQExGotTdx8XcHmZyU1grLEEAVLoMnI24K6XN1GuRqXuXr0wQYGViDoCgFrXY/PIk0rMFFB4nvcKp8FvS33+OgFL2RaQobaomHYIgSG+VMZWboLlXDWk/fV2iDZzN7EBEkBvGLnmYEIxr0Y+QqVfDQmGO9t51MalibyypNQY7G83G0NIdoRG1uXrQAIAMAswMPUa0ok7qAgi8G9/kwwP1EDL1aqj17yqSrH38RwQIaFWwFtb6TUJNt3IwlZlAqc3A8bc30Pj4aPz+/NgfrJcxxhhjjLG/37sfWiPxKCEYDxNe4VFCMCKkx7gFVHIsgbjMJFyPeQiAEKaMQXBKOEraF5KCGAmZKdCJekSp4qHUZeB1WiREEhGTkQTRcO9T1qEoClg4YGuDGbjU+hfMrDJQepT+T8RC4G1TAG7mDkjWKNGzeDOEpcegqK1Hjrc1RqkS8Dz5LYgI16MfISojEd427qjhUhaZejWeJIaAQIhSJeBefBA8rf7+XgACBAQmvUbfS3NQ+UA/7Ht9EdVdSmN57bH4qlgzOJrZwtPSGdWcS+JIs4U422oFWnrVhpOZHYoZxrBIUiuh1L7r3R6RHodr0Q9Rx6085IIcDTyqIjw9FleiH/xvrEIA1Z1LIz4jCYFJrwEAr9Oi0Ons99j04hhK2RdCKXtvHGg6Dxdar0In73pwNLNDTddyuBf/HG6WjjjUbAFGle2Cjc+P4eeH2/K87/oQvShCRzrD22NyUsjksDWxQkErNxSycsOjhGDEZSZDK+oMg8qKcDa3AwCo9Vq8UUaDCEjQpEKkd8sbIwC/Pj2AK9H3scB3OE63WIZabuXgYm4PmSDAy8oV12MeIUmTBp2ox69P96PruSmIz0x5z53+/48vIhhChpv2lU/3YYr/Wukz1X8tVjzZ+94dRERI06aD6F3F8ijxFWbc24gZ9za8+wS8+8y8twEH31wG3j1Zgyae1VDc1lPKx8rEAh0K14MsWzev7KyyDQ4EAXAws5UGilHp1NCKOqhFDQQApnJTVHZ+N54HAJjI5FAYeqgQAK34rheGDDJ0LdIIlgpzKW0pu8Jo5FE11wn7sQQIhmCHL8zkpiB6V9kSEdINj6dkvUknaz/NNOynmQEbMO/BZrxIeYuYjAQMv74Qg64uwE8PNuHo2+t4mRIOnaiHtYkF+pdohSmV+uWIBGfRk4gkjRIwDCrbomBNKdJrY2IJe1Mb40VyeN+xfh8BAkrZF8YPlfvBxtQSRCKeJIVgyLUFGHl9MWIz371umDHGGGOMsX8aEeFy1H1MvffuXmfqvbV4nhKWNReZerXhnsTQS0IQYK4whZjHzXDWFMr2yaLRaxCfmYIdwWewPfg0trw8hQUPt+FC5L1PbnALENCtaGPoSISfW0V0LdIYfm4VIYOArkUbIatfh4lMId0oWynMYSqTQy7IkGl4c2b23g0WCvM8y/GJHSD+kJe1Cxb6jkAzL19oRB3WPD2IVqe+w/34F/iqeFOIJEJHIp6nhEn7an3QYcwJ+B0vpOMCae8SCLtCzsHR3A5VnEuggkMxHA+7If34nZUyU6/JcW8pAKjnXgk+tgWh1msRmhaFHa/erW/zy1NY+HAbnia9xomwG5hw6xfse30RXlau2N9kLuZUG/zJ+yVZk4bnKW/hZekKJ/P/DdgLAPXdK2NP4x9R1bkkdNBDLvtfOS0UZpBB9sl3ZQKAOdUG46dqQ/BWGYMNz4/APy5IOuY6US/9YA4AXtZuaOBeOce0f0Led///gHdPMWX9m/O/99GRHg8TgkF414NAJgDbgk9ifdAR7Hh1BuZyM5S294a3jTtiMpKkKOm35b+CtYkl0nUZiMlIhFyQoXORhujj0zKPQISAIjYeqONWAYIgQAYBfgUqQCEoQASEpkUjXZuJGFUiAMBaYYGWXrWkQWBdLRzhauEAAkGpVeFx4isIgoARZTqhdaHakAkCYjOSkK7LgL2ZNcaW6w7v97w5JRfh3Yn37vGid71O5lQbhIYeVSEIAtR6LY6+uQY96fFWGQ0CQQ4ZolQJWP/8MNYHHcH+0EsobF0Ape284Whmh+iMREyp1B/7mszFd+V7wFRmgmFXf0bj4yMx9e46qPVaCIKA6i5lYG3obZOdRtThadJrEBHM5CYYUqo9KjuXgEwQMKx0RxSwdDJe5C8RhHevIytm6wkBAkKV0Rh0ZR4uRPojU9RIxyGrkmaMMcYYY+yfRdKPue9iHFk32sCTpNcoYOGI+u6VIAgyOJjZoKiNBwKTXn/wvsjY85S3MFeY4lT4bWx4fgQPEl6iV/Hmht7iH58PAHhaOcPXpQz2vj6P1qe/Q+vT36HN6fE4/vYG6hWoBG8bd0AQ4G7phMLWbpAZ7hUKWDjhQcJL3I17BisTc1RxKgmZ8O7R/CpOJRCWHgsCQQBQwMIRgvBuYFFrk+z3GASZIECOd4/TfKqI9DiUtC+MwaXaQ2a4eUrXZSBdlwmtqEWyJg0xGQkgehfk+P3FcdiaWuGbkq1hqTDPs0fG8+S3iM9MxsiyXWFlYoE9IedzHZsHCS/hZuGIys7vtrmorScW1hiJpl7VEZwaAUEQsCHoCNY/PwI96dGreDMka5RYXWcivinZBuueHcLYm8uxNfgUKjuX+FN3MqfDbsHaxAJ9fVq+u48V3r1hdEip9rAzs8at2KeITI9HZacScLVwhEImRwXH4hAEATEf9XpkgkyQSYGuOm7lcSLsJpY+3oW9ry/Ayexd7xIYeg3Vcasg3bv282mJOdWGSL33s4bLyB4w+//wxQRD/ohO1Esno72pDXoXb45aruVwJ+4pItLjIEBAGYci+KXOeHxTsg0mVuiFUWW7oEexpmhVsDasFRZwtXDATMN4EjrSY8+r85gZsBFKbQYsFeYYU64rqjiXyrFewfCq2bnVh2BM2W6YW30oGntWh0wQkK7LwOE3V5CoTsGZiDvQkR4K2btnomZXHYT+JVpjbrUhsDOxgp5EXIm6D//4INR3r4QRZTvDRKZAmkaFWQEbsSP4LEQiFLJ2w8yqA6THWj5EgIDyTsVxssVSnG+1Evc6/I6+Pi0hF2QQDW9xuRrzEFpRj9Pht6HWa6CQydHXpyVmVhmA/iVa45c636GfTyt0L9YEtd3KQS7IEK9ORhkHb1R0KoHexZujb4mWaFe4Lqq7lJYev0nTqgxjjeSk0Wux69VZxGa+Cz65WzrjUNMFeNl9D7oVa5znMn+Fi7kDqjqXlCoIGxNLrPGbiJMtluJUts+JFovRsmAt48UZY4wxxhj7x2XdSp8Mu4nbcU+xpOZobKo/FQeazsNbZQzWPjtoCJz8MQKwPfgMotITsKvRLPxefyrW+E3A85S3OBdx55NCIQKANoX8YKkwx+nwO9CJeuhEPTSiDpei78PO1Ao1XcsChh+15/uOwMZ6U/BT9SG4n/ACl6Pu42TYLRwOvYqZVQdia4MZ2N5wJrSiHuuDDkMr6nA95hG+Kt4Ma+tOxowqA6DLdr/wPPktbEys8Fv9KVjgO1zqnf+xRMNYjU7mdrjadjXW152MUy2WopR9Yax5dgjRqgSsCtyP4rae2N5wJn6vPwU9ijXB/teXEJT8xjg7AIBKn4krUQ/RyKMqnie/Qbo29ziK+0Mv4WbsE/xebwq2NJiOnQ1nISQ1EvteX8L6oMOwNbHCmVbLsb3hTIyv0BPXYx5DpcvE7pDz8LZxx/EWi/Fb/R/Qr3hLXI9+lCvY8jGuRD/Eksc70dyrBi62XoXf6k3BuVYr4GHpgtkBG/Ek6RUWP94Je1MbbK4/Db/Xn4pvSrbBlpcncS8+6IPr1Ip6PEkMQdcijXCg6Tw0cK+CBwkv0aZQHayq8x0ONJmHdF0G3C2c8FXxplgbdAgFrd1wsuVS7Go0B12KNML24FMgEEJSI2AiU2B93clYXGPU/2tARKC8wl1/ktu21saT3ksA0MG7PpbVGgszuSmCU8PQ99IchKRGGCcFAJjJTbGz0WzUdisPAYBIIn57fgzT7q1DU09fLK45Gs7m9oZI67tn5SAI0IgaLHu8BysC92BcuR4YXbYrTOQKPEkMQYezk6DR6zCtcn98U6ot5JDhXKQ/hl9fiMpOJbCp/lRYyM0Qlh4DT8OgoILwLgghEuFCpD9G31iCRHUqLBXmWFJrDNoUqvMuYGCI9gqCDESE5ylvMOzaQkSq4rGx3vfwK1ARelHE1penMO3eOpjLTbGvyU+o6OQDtV6LBQ+3YfXTA7lOQpkgYG71YehfonWe8UECQaPXYk/IBcwK2Ig0rQowvOVlVtWB6FW8+bvua9nKByLEqZMx6sYSXI66j8LWBfBrnQmoYnjcR08iRBKhEBQQBEAnipjqvxbbgk9hZe1v0bFwfWhJj6WPd2Hp452QCXJUdymNxTVHoaiNB2AYfOd6zGN4WDqhhF0hpGiUGHR1Aa5E3cfUyv0xomwXAIRDoVcw7NpCAEDfEi2xoPpwQADuxAai/ZnJufZHJScf7G08F7amuXupZKcnEZPu/IKtL08Zz2KMMcYYY+xvZyJTwNncHmlaFZSGNjoAOJjZwFRmgvjMZIgkwtrEEsXtvFDFqSRep0UhID4IKZp0mMoVcDKzQ5pWhTStSsovRaOESpcJc7kpHMxsEZuRBJFE2Jlao7xjUZSwK4SnyaF4kvhKujf4FPam1rBUmCM+MxmabOPwmctN4WT+rjwKQQ4zuQkKWDihinNJvEh5i0eJr5CqUYIMaX1sC6K6a2lEqRJwJ+4pktVp0JMIK4UFarqWhaeVC65FP4RKl4l0XSbStCqYyk3gZGYLhUwBtV6DuIxPfwReJsjgaGaDeu6V4WxuhzSNCucj/ZGQmQI9iZAJAgpYOKGGa1nYmVrjVmwgQlIjoBG1cDG3BwFIVKfmeL2tlcICjma2SNdlIEmTBiKCtYkFbE2skKBOgUavhaWJBUrZFUIlpxIISYtEQPxzpGrTIUCAg5kNariURQFLR1yLfojw9Dhk6NSQy2RwMrNDfffKsDG1hH9sEF6mhiFDl/nJ2w3D+CBOZnaoW6AiHM1tEa1KxM2Yx0hQp0iPXrlaOKCWazk4mtviduxTw8sstLBQmMHO1BpxmUnQiXqYy03haGaLJHUaMvUaWJtYwM7UGgCQpE6DXJChmktpFLF1R0Dcc4SkRcLaxALp2gwotRlwMLNFnQIVYG9qjStR9xGuioNWr4VCpnj3RhlBAY2o+cheKe/E9D5uPOmT/GPBEADwdS2Dr31aw0SmQHRGAlYG7kNMxrvHTYwJEFDM1gMDSraDs4U9QIQLkfew89VZCIKAqk4l0aN4U5S1LwIHMxska5R4q4zBybCbOPb2OmxMLDGhQi+4mNtDI2qx9/UFXIx8915pKxNzTK3cH85m9sjQq7Ej+AxStOkYUaYzTGUK3E94AQECGntUg6eVC+Iyk3E37hnWPjuE6IwEqXxmclP0Lt4MjTyrw93SCeYyE0So4nE//gU2vTyOyPQ41HevjK5FG8NMZoI4dTJ+ur8JSm0GBMP7rbsWaQwTmQJRqnjMfbAZmUaDugoQ0LN4MzR0r/IuopSNVtQhJiMJp8Nu4U7c0xwDkAp498xh16KN0dKrJgpZF4CZ3AQJmSl4lhyKzS9P4GlSqCGtADtTa3xTsjV8XcqggKUTzOWmSFCnIkwZg2Nvr+P42+uAIGBgybbwdSkDPYk49vY6ToTdRBl7bxSydoO1iSU8LJ0RnZGA+/EvYSKTY1P9aSho7YqEzBR0uzAVgYmv0blIA7TwqgkAuBP3FOuCDkMwPM/Wq3hzAAKCU8Ow4OE2aXuylHUoipFlOsNE/m5clvcRibAt+BSuRD0wnsUYY4wxxtgXR/jkB1ry9rny+VgfWt+fnfe5vOtNbvzz6v/8HWX4UJ4fnid8oKSfLuvW8X05fqgsn9PnXM+/Ohjyd3A2t4O1wgJKXSZSNMrP9hYRAQJsTC3haGaLVE26FAHMi4XCDPamNjCRKZCoTkW6NuOznsh/1buo8bvypWpUSNWm54h0ZmepMIe9qTVMZSZI1aYjVZue4806xmSCDN+UbIOZVQZAJsiQpE7D2Yg7UOkyUdW5FMo7FoUMMtyOC0Snsz989sdmGGOMMcYYY4z993EwhH1xvKxc8XONEajlWu7dSNHZ6EU9XqVFYLr/elyKCsgxjzHGGGOMMcYY+xgcDGFfHAHvXj9c2akEariWQQXH4jCRmeBVWjjuxD7FvfjnCE2L/IL6yjDGGGOMMcYY+zfhYAj7or0byPZ/D4Z9SY8LMcYYY4wxxhj7d/qrwZB/zat12b8TGd7uk/UfY4wxxhhjjDH2T+NgCGOMMcYYY4wxxvIVDoYwxhhjjDHGGGMsX+FgCGOMMcYYY4wxxvIVDoYwxhhjjDHGGGMsX+FgCGOMMcYYY4wxxvIVDoYwxhhjjDHGGGMsX+FgCGOMMcYYY4wxxvIVDoYwxhhjjDHGGGMsX+FgCGOMMcYYY4wxxvIVDoYwxhhjjDHGGGMsX+FgCGOMMcYYY4wxxvIVDoYwxhhjjDHGGGMsXxGIiIwn/lnu29sYT2KMMcYYY4wxxhj7rKJ6HTOe9Ek+azDkbuQz40mMMcYYY4wxxhhjn1V1j9LGkz7JZw2GKNMzjCcxxhhjjDHGGGOMfVbWVhbGkz4JjxnCGGOMMcYYY4yxfIWDIYwxxhhjjDHGGMtXOBjCGGOMMcYYY4yxfIWDIYwxxhhjjDHGGMtXOBjCGGOMMcYYY4yxfIWDIYwxxhhjjDHGGMtXOBjCGGOMMcYYY4yxfIWDIYwxxhhjjDHGGMtXOBjCGGOMMcYYY4yxfIWDIYwxxhhjjDHGGMtXOBjCGGOMMcYYY4yxfIWDIYwxxhhjjDHGGMtXOBjCGGOMMcYYY4yxfIWDIYwxxhhjjDHGGMtXOBjCGGOMMcYYY4yxfIWDIYwxxhhjjDHGGMtXOBjCGGOMMcYYY4yxfIWDIYwxxhhjjDHGGMtXOBjCGGOMMcYYY4yxfIWDIYwxxhhjjDHGGMtXOBjCGGOMMcYYY4yxfIWDIYwxxhhjjDHGGMtXOBjCGGOMMcYYY4yxfEUgIjKe+Gcp0zOMJ31W1lYWxpMYY+w/T6PVQaPRGk/+rMxMTWBiojCezBhj/3l/d/sV3IZljOVTGo0WGq3OePJn81frVu4ZwhhjDBCMJzDGGGOMMfbfxcEQxhhjjDHGGGOM5SscDGGMMcYYY4wxxli+wsEQxhhjjDHGGGOM5SscDGGMMcYYY4wxxli+wsEQxhhjjDHGGGOM5SscDGGMMcYYY4wxxli+wsEQxhhjjDHGGGOM5SscDGGMMcYYY4wxxli+wsEQxhhjjDHGGGOM5SscDGGMMcYYY4wxxli+wsEQxhhjjDHGGGOM5SscDGGMMcYYY4wxxli+wsEQxhhjjDHGGGOM5SscDGGMMcYYY4wxxli+kq+CIVqtFkqlElqt1njW/xu9Xg+dTgdRFI1nMcbYv5YoisjMzERmZuY/Vr8REXQ6HXQ6HYjIePbf5kvYdsbYf1t+bcMSEdRqNZRKJfR6vfFsxhj7SwT6jC1GZXqG8aTPytrKwnjSHyIixMbGYu3atXjx4gUSExPh6OiIYsWKYeTIkXBxcTFe5C/L2qVEBEEQIAiC9PfKlSvh7++PunXrYtCgQUZL/j1evnyJZcuWoWXLlmjTpo3xbMbYF06j1UGj+XsbwGZmJjBRKIwn/yFRFHHp0iXs3bsXsbGxICI4OTmhc+fOaNasGWSyzx9zJ6Jc9SsAPH78GCtWrICNjQ0mTJgAd3f3HMt9bkSECxcuYN++fYiJiYEgCHBxcUH37t3RoEGDHGVjjH25/u72K/5CGzY6OhqrV69GSEgIEhIS4OTkBB8fH4wYMQJOTk5/Sz2TVx1LRFi6dCkePHiAJk2aoE+fPn/LurOIoogHDx5gw4YNiIuLg1KphKurKypVqoQBAwbAxsbmb10/Y+zz0Gi00Gh1xpM/mz9Tt2b3nw+GpKamon379rh8+TJkMhnkcjlEUYQoivDx8cHJkydRpEgR48X+EiLCpEmTsGfPHnz11VeYPXs2TExMQETo1asXjhw5gt69e2PNmjXGi342WYdVFEVs27YN33zzDaZPn44ZM2YYJ2WMfeG+1GCIKIpYv349hg8fDiKCwrC8TqeDQqHAunXr0Ldv388eEPH390eXLl3g7OyMkydPwsXFBUSE8+fPo2fPnnBycsKRI0fg4+NjvOhnI4oiDh48iO7du0MURSgUChAR9Ho9LC0tcfr0adSuXZsb64z9C/zd7Vf8yTZsbGws2rdvj9u3b0ttWL1eD1EUUblyZRw+fBheXl7Gi/0lGo0G48aNw7FjxzBo0CBMnjxZqt+6deuGkydPYvDgwVi8ePHfWr/5+/ujU6dOiIiIgEwmg0wmk3r9derUCZs2bYK1tbXxYoyxL8yXHgz5vC3ULwwR4fDhw7h+/TpMTEwwc+ZM7NmzBwsXLoSHhwdevXqF1atXGy8GtVqNt2/fIj4+XgoqGBNFEfHx8QgPD4dGo8kxj4iQkJCAt2/fIi4uTspDEATMnz8fd+7cwbRp03Itk5KSgjdv3iAzMzPHPGM6nQ4RERFISkoyniWJiIjAnDlzMGHCBIwbN854NmOM/WVv377F4sWLAQBt2rTBjh07sG3bNvTs2ROiKGL06NF48OBBjmWy6s7g4OAP1nUZGRkICQnJVc8RETIzMxEWFoa3b99K3aYFQUDNmjVx+fJlHDlyBIUKFcqxnEajQWhoKGJjY/+wi3dWXazTvf/i/fz5c4wePRqiKKJRo0bYuHEjfvvtN1SrVg0qlQrDhw9HSkqK8WKMMfbRDhw4gHv37sHc3Bw//vgj9uzZg/nz58PFxQWPHz/Ghg0bcrVTMzMz8ebNGyQmJuaal0UURcTFxX2wDRsWFoaEhIQcbdjFixfjzp07mDBhQq5ASHJy8ke1YbVaLcLDwz9YP+p0OixevBjh4eEoVaoUfv31V+zevRu9evWCQqHAtWvX8OLFi/duH2OMfTT6jNKUqr/186lEUaRp06aRIAhUvnx5SklJIVEUSavV0vfff09yuZwqV65M6enpRESk1+tpzZo15ObmRjY2NmRnZ0dVq1alp0+f5sjz7t27VKpUKbK1tSUbGxsqUKAALV++nHQ6HYWFhZGHhweZmpoSADIzMyMHBwdq0qQJJSYmUt++fcnR0ZFGjBgh5RcaGkoNGjQgOzs7srGxIScnJ/ruu+9Ir9eTKIqk1+upZcuW5OjoSNu3b6fq1auTjY0N2dvb05w5c0in00nly3Lz5k2Sy+Ukk8lIEASSyWQ0c+ZM42SMsX8BtUabqz783B+NVmu82j/04MEDcnNzI1tbWzp27BiJokiiKFJcXByVLl2a5HI5LVmyRKrLQkNDqU6dOmRra0vW1tbk7OxMS5YsIW22dWs0GpoyZQo5OTlJ9XD16tXp+fPnpNfr6ddffyU7OzupXrOzsyM3Nzfy9/en8+fPk6enJ1WoUIFevnxJZKjXf/vtN3J3dycbGxuytbWlYsWK0c2bN6Xyrlu3jhwcHGj48OE0f/58qS6uUaMGvX79OtsW/8/u3bvJysqKChQoQHfv3pXq6l9++YUEQSAnJycKCwszXowx9gUyrg//js+nEkWRJkyYQIIgULVq1XK0YUePHk0KhYKqV69OKtW7vHU6HS1ZsiRH3Vm7dm0KDg4mURSlPK9fv06FCxeW2rCenp60fv160uv1FBoaSp6enjnasPb29tShQwdKSUmhHj16kIODA02YMEGqP1++fEk1atSQ6k1nZ2eaOnWq1DYVRZEaN25Mjo6OtHXrVipXrhzZ2tqSnZ0dLVy4MEf9nyXrevHkyRMKDAyUriHXr18nOzs7sra2pgsXLkjbxRj7cqnVmlz14ef8/FX/6Z4hAFCoUCEoFAo8ffoUS5cuxdWrV5GYmIhp06YhLi4ON27cgIWFBTQaDX788UeMGjUKWq0WzZo1Q4UKFfDgwQN069YNoaGhICI8efIEX331FV68eIFixYqhRo0aUCqV+PbbbzF69Gjo9XpUrlwZzs7OAAAnJydUqVIFpUuXhlwuh1KpRHJyMlQqFYgIkZGR6NGjBy5fvgxPT080aNAAZmZmWLp0KXr37i1FztPS0pCUlITp06dDFEUUK1YMaWlpmDNnDk6ePJkrOl60aFH89ttvWLt2LYoWLZpjHmOMfQ42NjawsbGBUqnE6tWrsW/fPrx48QI2Nja4desW4uPjMXr0aAiCgMDAQDRv3hx37txBuXLl0KpVK5iammL8+PH46aefoNVqkZKSguHDh2PevHlQKBSoV68eChQogHv37qF9+/YICgqCq6srSpQoAQCQy+WoUKECqlSpAktLSymP1NRU6PV6qNVqzJ8/HwMHDkRmZiYaNGiAMmXK4O3bt+jevTtu3LgBMgzOl5ycjP3792Px4sUoX7489Ho97ty5g6lTp+Y5YGH79u0RHh6Op0+folKlSiAihISE4MiRI4Ch7rew+GtdNxlj+ZcgCPDy8oJCocCjR4+wcuVKXL9+HcnJyZg/fz5iY2Nx5coVmJubQ6PRYNq0aZg0aRIAoFmzZihXrhxu3bqFLl264O3btyAi3L17F7169UJYWBhKlCgBX19fJCcnY8iQIZg0aRJEUUSlSpXg4OAAAHB1dUXVqlVRokQJyOVypKenIzk5GRkZGSAiREREoEePHrh79y4KFSqEBg0aQKFQYO7cuRg8eDBSU1MBAEqlUmrDWllZoVChQlAqlZg9ezYuXbqUqw0rCAIKFy6MsmXLomTJkggKCsLVq1exY8cOZGRkoHLlytJ1gDHG/hLj6MhfYRyp+dyfPyMpKYk6duxIgiCQXC4nR0dHKl68ODVp0oSuX78uRZsfP35M1tbWZGlpSTt37iSVSkVxcXHUrl07EgSBRo4cSampqdSyZUsSBIEaNGhAERERlJycTKtXryYLCwtycnKi27dvU1JSEvXp04cEQaA+ffpQXFwcKZVK0ul01KlTJ5LJZPT111+TTqejiRMnkkwmIx8fH3r+/DkplUo6c+YMOTk5kYmJCe3fv590Oh35+fmRIAjUsGFDCg0NpaCgIKpUqRLJZDKaMWNGnr1DiIhUKhX5+flxzxDG/sW+1J4hWq2W9uzZQ5aWliQIApmbm5OnpyeVK1eOZs+eTZmZmUSG3hkzZswgmUxG1atXp9DQUMrIyKAtW7aQiYkJlShRgt68eUPnz58nJycnsrW1pV27dlFaWho9fvyYPDw8SC6X06RJkygjI4NOnz5NMpmMnJyc6MWLF5SSkkJarZZOnTpF1tbW5O3tTUFBQfTy5UsqXrw4mZqa0rx580ipVFJ4eDjVr1+fBEGgTp06kUajoZUrV5IgCGRjY0Pnz5+n+Ph4mj59OgmCQJ6enhQbG2u86RJRFEmn09HatWvJx8eHBEEgCwsLOnr0KOn1euPkjLEvkHF9+Hd8/oyYmBhq3rx5rjZss2bN6Pbt21IdExAQQBYWFmRlZUVHjx6V2rAtWrQgQRBowoQJlJaWRk2aNCFBEKhJkyYUGRlJycnJtGjRIjI3NycvLy968OABxcXFUadOnUgQBBo2bBjFx8eTUqkkvV5Pbdu2ldrEWq2WRo0aRYIgUMmSJenFixekVCrp4MGD5ODgQNbW1nTixAnS6/VUo0YNEgSBWrduTWFhYfTgwQMqVaoUKRQKWrRo0Qd7eKhUKurVqxc5OjqSQqGg5s2bU3BwMNevjP1LcM+Qf5i9vT127tyJffv2oUOHDihRogSSk5Nx/vx5NG/eHL/88gtEUURAQAAyMjJgY2ODuLg47N+/HydPnoS1tTWICFeuXEFISAiuXbsGmUyG/v37w93dHXZ2dujYsSN27dqFo0ePwsfHB7a2tjAxMQEAmJqawtbWFpaWlrmer0xLS8OZM2cAAB06dICPjw8sLS1RvXp1lClTBnq9Hv7+/tLz7YIgoHbt2ihYsCA8PDzg4eEBAIiJifnDZ+AZY+xzUygU6NKlCwIDAzFu3Dj4+fnBysoKT58+xYwZM1CrVi28evUKOp0OFy5cgCiKcHJywpUrV7Bv3z5ERUUBhjGOQkND8eDBA6SkpKBAgQLw8/ODtbU1SpUqhVWrVuHkyZPo27cvzMzMYGlpCQCQyWSwsbGBra0t5HK5UenevUkrMjISVlZWaNasGaysrODh4YG+ffsCAK5fv474+HgpfZEiRVC7dm04Ojqidu3aAICkpCQkJCRIabIjIjx+/BhNmzbF0KFD8fr1a1SpUgXbtm1D69atP/vAsYyx/MXV1RWHDx/Gzp070b59e/j4+CApKQlnz55Fs2bN8Ntvv0EURdy+fRtqtRp2dnaIjIzE/v37cerUKVhZWQEAbty4geDgYNy8eRMymQxDhw5FgQIFYGdnh27dumHPnj3Yu3cvvL29YWNjI7VhzczMYGtrCysrq1xt2NTUVJw4cQIA0L17dxQrVgxWVlaoVasWihUrhszMTNy/fz/HMnXq1IG7uzsKFiwIV1dX6PV6xMTE5OoZkp1MJkPJkiVRs2ZNlCxZEufOncOwYcMQGRn5weUYY+xj/KdbakSE8PBw3LlzB6VKlcLu3btx/PhxHDt2DJ07d0Z6ejqWL1+OhIQEpKWlAQDi4+Px448/YuLEiZg4cSIuXLiAAgUKwNLSUuoaKJfL4ezsLF0YXF1d0aZNG9SsWVPqWmjM+CICw0CtWY/BZL0CUhAEKBQK2NraAoYBqbJX9tbW1tzAZox9EVQqFe7evYvo6GjMnDkTx44dw4kTJ7Bjxw54enriwYMH2Lx5M1QqlVTHXr58Wapfly5dCicnJzg5OUGlUiElJQWiKMLS0hLm5uaA4VGY9u3bo3HjxihdurRRCd6PiJCcnAytVpujTgUgvX0hPT0daWlpUh1rbm4OU1NTKd2HEBFevnyJnj174vLly3BxccHy5ctx+PBhdOjQIc86nzHGPhYRISwsDHfu3EHFihWlNuzRo0fRpk0bpKWl4eeff0ZCQoLUloyOjsa0adMwYcIETJgwAdevX4ebmxssLCxytGFdXFykOsrLywutW7eGr69vjnryj2RkZEiPwXh6ekrTzczMpB8Ss7dhBUGAlZXVR7dhRcObH01NTTF16lQcPXoU27Ztg6urKy5evIgDBw4YL8IYY5/s42qkfymdTodRo0ahYcOGGDx4MJRKJRwcHFC9enUMGTIEMFw4YmNjUbBgQQiCAHd3d1y6dAlhYWEICwuDv78/bt68iUOHDsHHxwfOzs7QarV49uwZRFEEESEgIAA9evRAv3798Pjx4xxl0Ov1IMP72o1ZW1tLbzx4+PChlDYtLQ1v376FIAgoWLDgR184GGPs/9O1a9fQokULtGnTBjdu3ICpqSmKFi2K9u3bo0aNGiAivH79GqampvD29oYgCOjevTtCQkIQFhaG58+f4+rVq7h+/ToaNmwILy8vmJiYICkpSXoTQkZGBvr164fu3btj5cqVOdZPhlfZ5lW/CoIAT09PWFpaQq1WIzw8HEQEURRx5coVAECBAgVy3BR8itTUVAwaNAhPnz6Fm5sbjhw5giFDhsDDwwOCIORZJsYY+1g6nQ7Dhg1Dw4YNMXLkSKhUKjg6OqJmzZoYNmwYACAyMhLx8fEoXLgwYBgnz9/fH+Hh4QgPD8fdu3dx8+ZNbN++HcWLF4eTkxN0Oh2ePHkitWGvXbuG7t27Y+DAgXj58mWOMnyoDWtra4uCBQsCAAICAqS0iYmJiIqKglwul9rWnyo6Ohq+vr4oVKgQdu7cCVEUIRjGUMnahtevX+dZLsYY+xT/6btshUKBr7/+GhYWFrh58yZGjhyJEydO4MCBA1iwYAFg6BZduHBhVK1aFV5eXoiJicGPP/6Iu3fv4vTp02jbti2aNGmC9evXw9HREQMGDAAArFy5Etu2bcOVK1fw448/4sCBA7h16xbs7OwAQOqaeOfOHWzYsAEnT57M9foyCwsLDBgwADKZDEeOHMHy5ctx8+ZN/PTTT3jx4gXMzMzQqFEjDoYwxr5I5cuXR9GiRZGYmIiJEydi2bJluHDhAubPn4/r169DEASUK1cOpqamaN26NczMzHDmzBns3r0bgYGBmD59Oho2bIiBAwciISEBNWrUgIeHB6Kjo7F48WLcunUL69atw/79+3Hs2DE4OTkBhkCyQqFAamoqFi1ahG3btiEuLs64eChRogRKlSqF9PR0LF68GDdv3sTOnTuxZcsWCIKAbt26fdIvodk9ffoUDx48ABGhUKFC2LNnDyZOnIjx48dj/PjxmDNnzgdfHckYYx9iYmKC3r17w9zcHJcvX8aYMWNw5swZ7NmzBwsWLAARoXjx4ihYsCBq164NDw8PhIeHY/r06fD398eJEyfQpk0bNG3aFFu2bIGLi4v0iODPP/+MXbt24cqVK5g/fz4OHjyI+/fvw9raGoIgSI8iXr16Fb/99hvOnTuXqw1raWmJESNGQC6XY+/evVi9ejVu3ryJefPmITQ0FDY2NvDz88uxzMeyt7eHra0tIiMjMWPGDCxcuBCbNm3CDz/8gODgYJiamqJy5cp/KtDCGGM5GA8i8lcYD2jyuT9/RmZmJg0ePJjMzMxIEIQcH0dHR9q2bZv0ejB/f39ydXWVXkcrCAIpFAqqVasWpaamkiiKlJmZSc2aNSOFQiGlyXq945kzZ4gMA+pt3bqVbGxspPk1a9akhISEHAOokuFVaIMGDSJTU9Mc+VlZWdHq1atJr9eTXq+XBkGdN28eERGlpqZSq1atSCaT0dChQ0mj0eTY7iw8gCpj/35f6gCqoijStWvXyMXFheRyeY761cTEhKpWrUoJCQkkiiIlJSVR27Ztc9R1giCQlZUVrVixQqrrfvnlF7KysspRD5uYmFC3bt1IqVQSEVFaWhrVrFlTWqe5uTndunUr1wCqoijSyZMnydbWNle97ufnR5GRkSSKojSAqq+vrzSo9qlTp0gQBLK0tKRnz54Zbzpt376dzM3NCQAByLFNAr9al7F/FeP68O/4/BlKpZJ69+6dZxvW2dmZDh48KLVhr169Si4uLrnqunr16klt2JSUFGrQoEGebdiLFy+SaHhF+Jo1a8jCwkJK07RpU0pOTs4xgGpWnd2nT58827AbN26U6tMaNWqQTCaj5cuXkyiKlJCQQPXq1SPBMLir8WCooijSuXPnyMPDI9d2m5iYUMuWLSkxMTHHMoyxL9OXPoCqQJ+xj5kyPcN40mdlbfXprynM6mZ96tQp3Lt3DxERETAxMYGXlxcaNGiA2rVrSwNFERECAwNx9OhRpKamQhAEeHh4oGPHjtLzkESE+Ph47Nu3D+Hh4RBFEba2tmjdujXKly8vRakzMzNx5swZPHnyBADg4eGB7t2748SJE3j+/DkqVKiANm3agIigVCpx7NgxBAYGQq/Xw9LSEvXq1UO9evWk7tZbt25FREQE6tevj9q1a0Oj0eDgwYN49eoVqlSpgmbNmuXZg0Sn02HHjh0IDw9H3bp1UbduXeMkjLEvnEarg0aT+/Wun5OZmQlMFArjyX+IiBAcHIwjR47g7du3SEpKgru7O0qUKIHOnTvD3t5eSpueno7Dhw/j6dOn0Ov1sLCwQO3ataXXMcLwnPjt27dx7tw5qFQqyOVyFCtWDF26dIGNjY2U15s3b3DkyBGkpqZCoVCgd+/eUKvV2L9/PywtLdGjRw84OTmBiBAUFISjR48iKSkJcrkcHh4e6NKlC1xdXQEA/v7+OHPmDNzd3dG/f38IgoCQkBDs2rULCoUCAwYMkHqlZHn06BFOnjwJnU6XY3oWCwsLDBo0KEeZGWNfpr+7/Yo/2YaFod48fvw4Hjx4gPDwcFhYWMDDwwNNmjSBr6+v1IYVRRGPHj3CsWPHkJ6eLj1q3alTJ7i6ukrt0+joaOzduxfR0dEQRRH29vZo27YtSpcuLaXJyMiQ2qsA4O3tjc6dO+PIkSN4+fIlqlatimbNmkEQBKSkpODw4cN48eIF9Ho9rKys0KhRI9SsWRMymQxEhM2bNyMyMhJNmzZFtWrVoFarsXfvXoSFhaFGjRpo1KhRrl4eoijiwYMHOH78OCIjI5GamgpPT0/4+PigY8eOcHJyyrUMY+zLo9FoodHm3Vb6HP5s3ZrlPx8MyY4Mz4vDMCjfh2Ttlg9VtB+T5lN87vwYY/8NX3IwJLusZ9BlMtkH67Hsl533pfuYNJ+K61jGWF7+7vYrPnMb9mPr2L+a5lN87vyyyxpMVS6X/y35M8b+Pl96MCR3V4L/MEEQIJfL/zAQAkPaP6pwPybNp/jc+THG2P8nmUz2UY3VrLruQ+k+Js2n+tz5McbY/5fsbdg/qsc+pq77mDSf4nPnl51MJoNCofjb8meM5V/5KhjCGGOMMcYYY4wxxsEQxhhjjDHGGGOM5SscDGGMMcYYY4wxxli+wsEQxhhjjDHGGGOM5SscDGGMMcYYY4wxxli+wsEQxhhjjDHGGGOM5SscDGGMMcYYY4wxxli+wsEQxhhjjDHGGGOM5SscDGGMMcYYY4wxxli+wsEQxhhjjDHGGGOM5SscDGGMMcYYY4wxxli+wsEQxhhjjDHGGGOM5SscDGGMMcYYY4wxxli+wsEQxhhjjDHGGGOM5SscDGGMMcYYY4wxxli+wsEQxhhjjDHGGGOM5SscDGGMMcYYY4wxxli+wsEQxhhjjDHGGGOM5SscDGGMMcYYY4wxxli+wsEQxhhjjDHGGGOM5Sv/6WAIEb33kzX/fT40j7FP8V84l7J/b4wZf7fel+7P+tz55eXvKnt+YHzss+/Hf/v+/JLK/18+P/+r2/VP+1z7NXs+nytP9nGM61Xj+vVDx+ND8/7rvqRz9o+O05fq31hm9nGy1yHsPxwMISJcvHgRRYoUgbe3Nzw9PeHp6Qlvb2+ULVsWFy9exPXr1zF+/PhcJwMR4fLly+jatStUKlWOef+fiAghISFISUkBAIiiiBUrVmDBggW5yvy5EBGWLl2KLVu2GM/6ohARgoODERcXZzzro+j1ejx79gzp6enGs/40IkJERARCQkKkaU+fPkXLli2RlJSUI+2/SWhoKHr27Ak/Pz/cvHkzx7wXL16gWrVqKFy4MLy9veHt7Y0iRYpg3bp1UCqVaNWqFc6cOZNjmU+hVqsxYMAAREdHG8/6bDQaDdavX4+qVati2rRp0Ov1xknYe4SHh+c6/t7e3pg2bRrS0tLQsGFDXLp0yXixj5aeno6BAwciPDzceNb/i9WrV2PDhg0gIrx+/Rp+fn548+aNcbK/FRHhyZMnaN68OZo3b45Xr14ZJ/lXIyL89NNP2LdvH4gIL168QOPGjf8V25mUlITg4GCIomg867MhImzYsAFjxoz5w+u+KIoYMGAA3r59iwsXLnxUGyY1NRWBgYHQ6XTGsyQLFy7E4MGDkZGRgfnz52PTpk1/WBZjWq0Wjx49QlpaGpCtPdO3b1+o1Wrj5AzAyZMnUbRoUakN6+XlBW9vb5QrVw537tzB6dOnMWXKlDyPxYkTJ9C1a1dkZGQYz8oTEeHIkSP48ccf88zv76bX6/H8+fMPnocfg4iwZ88ejBo1CqIo4tatW2jUqBFiY2ONk360N2/eICEhwXjyH1Kr1Vi1ahV8fX3fe5y+RBkZGejfvz/Onj1rPOuTnDlzBjNmzPhb68csGRkZGDZsGC5cuPCv2c9/F41GgwEDBiAqKsp4FmJiYtC+fXvExMQgPT0dTZs2xfnz5/P9PvvPBkMEQUD58uWxfv16rFu3Dm3atEGtWrWwZs0arFq1CuXKlYNGo0FKSgqICKIoSieDIAgoU6YMxo0bBzMzMyBbZPePThjjvP7KPL1ejyVLluDevXsgIgiCgBYtWqB9+/YQBCHXctmXzV5e43nGsuZn5ZOWlgaVSiUt8ynrMP5klz0f4+nGH+P52ZfLSjNv3jycO3cu1/TsebxvWkZGBr7//nu8ePEix/qM0+Y13XheFlEUsWvXLixdulRKp9PpEBcXB71e/95l/yhfGNK87++sZT9m377P+/IgIpw4cQK2trb49ddfUbZs2RzL6XQ6iKKIJUuWYP369dKnWbNmICLExcXlaOi+rzzGZcueJjk5Oc/zL6+0xtM/9HfWtLi4OOzevRs///wzBg4cCJnsXbVIeeyPrOl5rS8/0uv1SEtLw6xZs6Rjv2HDBvTq1Uvat8Y3Osb7L699mT1NUlIS9Hr9e8+B7MfpY/LMS155AIBSqZQCpnq9HjExMTmCZdmXyz4tO+M8s/7O65MXvV6PrVu3okKFCli8eDE8PDyAPPZjlo/J80Pz/2heXnWxsbym4QP7OSUlRbppc3d3x9SpU+Hm5pZjOeOP8fS8joPxPOO/szPOO6/pxtt++/ZtzJs3D2q1OtdyWYyXyz7d+PO++SqVCqmpqTnmZ8leNgBITk6GXq9H2bJlMW7cOJiamuZKm7UuIsKjR48wZswYpKWl5Zie/dOuXTsMGjQIJiYmOdoH79su47+JCCkpKRg0aBCePn0KytaeGTFiBBQKRY6078s3+yc/qFKlCtatWyddUxs1aoS1a9di5cqV8PHxgVqtRmpqap77rFKlSjmO/4f2bZaMjAwpvyx57XPjv42nZV8mr3TGf5PhHJ82bZrUJs/LH+Wb9cnaDgDw8fHB9OnTYWtr+97lsv+/cf1ERFi7di0uXbqU6/tvnNZYSEgI5syZg6lTp2LQoEHS9Oxl/dA04+nZ151XWmMfky5rfvZtMzU1xfDhw1GhQoUcaYzTGedh/MnMzJR+zH1f2vf52PVln5aYmJirvZmdcXrjfIz//lDa96GPKPMf5ZNXOuO/s6fN6zzMug4YL2dnZ4fx48fDzs4O9IE2Wl7b8F/2nw2GAICLiwuaNm2Kpk2bomTJkvD29kbTpk3RqFEjODs7AwBUKhW2bduGpk2bYsyYMYiOjgYZAgKXL1+GVquFTqfDlStX0KFDB/j6+mLjxo25fm0hIqSnp2PNmjXw9fVFx44dcfv2belkTElJwfr161G3bl188803CAwMlOYlJCRg2bJlqF27Nvr06YOAgADodDqsXbsWp06dwty5czF69Gi8efMGERERePLkCchwo/3o0SP069cP1atXx+rVq6ULye3bt7F48WJs27YNdevWxaRJk/KMbIuiiPDwcEyaNAn16tXDihUrkJycLM3X6XS4ceMGunXrhoYNG2Lfvn1Sw+/ChQtYs2YNli9fjnr16mHjxo2Ii4vD1KlTUatWLWzfvl1Kq1KpsGfPHjRu3BitWrXCxYsXpe3ftm0btm/fjkWLFqFOnTpYvXo1MjMzAcOvVvPnz0fVqlXRt29fPHnyBDqdDhs3bsTZs2excuVK9O/fH0+fPsWbN2+waNEi7NixA99//z0SExMREhKCsWPHokKFCpg5cyaio6OhVCoxb9483Lx5E1OmTMGYMWMQGxsLtVqNffv2oVGjRujSpQuuXbsGnU4HIsKbN28wZswYlClTBj/88EOePRXu3buHnTt34vjx4+jXrx9u3rwJIoJer8fFixfRrl079OjRA4GBgVLllJiYiEWLFqFmzZoYN24cgoODc1VAZOitExkZCRh+bZg3bx6eP38OURRx//599OzZEzVq1MDChQuRmJgIGG6i7t+/j379+qFRo0bYsGFDrgsTDOdAYGAgBg8ejMqVK2PZsmVITEwEEeHQoUPYsGED/P39sWrVKoSGhhovDnNzczRo0ADNmjVDs2bN0LRpU3h7exsng0ajweXLl9G5c2e0aNECBw8ehEqlQlJSEmbNmoXnz5+DiKBWq7F06VIcPXoUMJyDT58+xVdffYWWLVvi9OnT0Gg0AIDMzEycPHkSLVu2RKNGjXD06FFkZmbi5cuXmDJlCqKioqTz7+eff8bt27dzlEmpVGLatGkIDAzExo0bcerUKYiiiJcvX2Ls2LHw9fXFrFmzEBUVBVEUoVarsXr1avj7++P777//V/x6/XeTy+Xw8/PLcfxLly6dI01WfXX79m306tULTZs2xZYtW5CWliYd/5CQEOn4L168GKdPnwYM52dwcDAGDBiAhg0b4uDBg1K9kpGRgaNHj6JFixZo3LgxTp48CY1Gg9jYWEyZMgV3794FEUGj0WDt2rXYtm0bRKNfqbLqpkaNGqFdu3Y4d+5crsZBXhITE7F69WrUrVsXvXv3xoMHD6DVarF9+3bs379f+o4fPHgQixYtkm72Hz16hPHjxyM+Ph63bt1C586dUb16daxZswZKpdJ4NTh8+DAOHz6MW7duYd26dUhISIBSqcT27dtRv359dOrUCTdv3oRGowER4fDhwzhz5gwWLlyIQ4cOGWcHrVaLw4cPo1mzZujQoQMuXrwo1XNpaWlYt24datSoga+++gp37tyR5oWHh2PChAmoVKkSxo4di4iICLx69Qpjx46VfoEiIvj7+2P8+PE5riMw1OWbN29GgwYN0LlzZ1y5ckX6HmdHhl6dWTfnwcHBGDNmDBo1aoRNmzZh/fr1uHHjBrRaLX755RdcuHABM2bMgK+vL7Zu3SrluWfPHmzevBnz5s1D/fr1sWfPHsTExGDcuHGoV68ejhw5Aq1WCxjKtmnTJjRs2BB9+vTBvXv3IIoiUlNTMXPmTFy8eBGDBw9Gs2bNcOHCBYiiiLt372LhwoW4cOECBg4ciF27duU4t4hIqldr166NuXPnSvVRcnIyVqxYAX9/f/Tt2xctWrTArVu3pGtifHw8fv75Z/j5+WHGjBlSu8SYVqvF1atX0aZNG3Tq1EnaLzBs0+XLl6HT6aDT6XDx4kW0b98evr6+2LRpEzIyMhAcHIylS5fi4cOHGDp0KH799VekpqZi7NixOH78OIYNG4aAgABER0fj2rVrUiAwJiYGs2bNQt26dbFs2TIkJSVJx/7333+Xyvrs2TOsWbMGOp0Ov//+O54/f44ZM2Zg1KhRSEtLQ3h4uHSTmXWdbN++PRo0aIC9e/ciPT0dZOhxuXbtWhw9ehStW7fGkCFDEBYWluc++S9xc3OT2rA+Pj4oXry41IZ1cHAADL3nNm7ciMaNG2PixIlSD4jk5OQcx//cuXNo06YNateuje3bt0ttrPchIkRHR2PatGmoUqUKvv32W7x69QqZmZlYuXIlTp8+Le3/lJQUTJo0Cbdv34ZKpcLu3bvRqFEjtG7dOkf9snXrVul7Ioqi9B1NTEzEuHHjcPXqVQwbNgw//vhjjrqQDDdty5YtQ506ddCvXz/cv39f+r4kJiZi+fLlqFu3LiZPnoyIiAipbLGxsbhy5Qr0ej3u3buHzZs3S/MePHiAZcuWQa1WIzExEQsXLoSvry969uyJp0+fQq/XY9OmTTh06BCWLVuG4cOH49mzZ0hLS5N6fHTp0gX379+HzqhHS1Z+qamp2LJlC06ePAm1Wo3Zs2fj1KlTmDhxIi5dugSdToeAgAD06tUL1atXx7p166SA1PXr17Fs2TKsXbsWderUwcqVK5GYmIi5c+fCz88P69evz3UvAkPb7+zZs2jTpg0aNWqEnTt35plOo9HgxIkTaNmyJerXr4/du3dDpVJBFEUEBAQgPDwcmZmZmDJlCs6ePYvRo0ejcePGOHXqlFQXxMfH46effoKvry9+/vlnrF27Fps2bZLmZ5eUlIQlS5agVq1aGDNmDF6+fJnndzglJQW//fYb6tWrh65du+LatWvS9S06Oho//vgjatasiWHDhiE4ODjXuogIx48fx5YtW6R5hw8fxtq1a6HT6RAeHo41a9Zg//79aNGiBX766SeEhYVhxYoVqFOnDpYuXSoFfNesWYN9+/Zh9uzZqF+/PrZs2ZJn+0AURTx//hxDhw5FjRo1MH/+fMTGxoIM9fmYMWNw+vRp9OjRA506dZJ+5DbOY/369bh9+zYGDBiAbt26wd/fH5cvX0abNm3Qv39/vHr1SlouISEBS5cuRe3atdG/f38EBQVJ3zW9Xp+j3XzmzBmo1WpotVrcuHEjzx5jOp0Od+7cQe/evdG0aVNs3rw5V3D0v+o/HQz5I0SEe/fuITExERMnToRGo8GsWbOgVquRlJQkXfwDAgLw9ddfo2nTppg0aRKOHj2KNWvW5DhByNA178SJE5g8eTKaNm2KPn36SBejefPm4e7duxg3bhwqVKiA1q1b4969e9DpdJgyZQoCAwMxbtw46ab/zp07KF++PLy8vFC1alXUr18fNjY2CAkJkW6ms26wq1SpgokTJ+L27dv4/vvvodFoEBYWhtWrVyMhIQGzZ89GUlISpk6dKjWUsiQlJWHw4MFQKpUYO3YsMjMzsXv3boiGqOChQ4fw3XffoWXLlhg6dCg2bdqE3377DUSEV69eYcOGDXB1dcW3336L9evXY+jQoShVqhSmTp2KjRs34u7du1Cr1Zg7dy5+/fVXDBgwAJ07d8bs2bNx7NgxAMDDhw/x66+/okCBAvjhhx9w6NAhbNq0CVqtFjNmzMD9+/cxY8YMlC1bFgMGDMDr169RtmxZeHp6okKFCmjatCkcHR2RnJyMdevWISgoCJUrV0ZcXBy6desGGxsbzJ07FykpKRg8eDC0Wi2qV68OV1dX1KxZE/Xq1YOZmRlWrVqFnTt3YujQoWjWrBlGjBiBM2fOID09HSNHjoSZmRkWLFgAlUqF3r1753r0xdXVFT4+PihUqBCaNm0Kd3d3wFBh3blzByNHjkT16tUxffp0qNVqJCQkoGfPnoiIiMDkyZPh6OiIIUOG5Hr0RxRF3Lx5U+perDME5+Lj45GYmIipU6fC19cXkyZNwpMnT/Ddd98hPT0dAQEB+P7771G7dm0MGzYMZ86cwY8//pjjBoSIcOfOHXTu3BnFihXDjBkz8PjxY4wYMQJKpRLFihVDyZIlUaJEiRxBxD/jzJkzWLRoEdq3b49+/fph2bJlWL9+PWxtbVGkSBHMmDEDSUlJ2LlzJw4fPiz9KhETE4OffvoJLVq0QI8ePfDTTz/h+PHj0BkChj/88AO6d++Ob775BqtXr8bWrVtRsGBBmJiYYNKkSUhOTsb69esRFBSE8uXL5yiTiYkJatasCTc3NzRq1AjlypVDfHw8hg8fDkdHR0yaNAlKpRI9evRAREQEdDodjh8/jpUrV6J48eKwsbHJkR97v6tXr2LKlClo2LAhBg4ciIMHD2L58uWwtbWFp6cnpkyZgqSkJGzZsgWnTp1CuXLlAABpaWmYPHky6tSpg4EDB2Lt2rXYu3cvtFotVq1ahdmzZ6NXr17o378/VqxYgV27dsHZ2RkVK1bElClTEBkZicuXL+PkyZNo0aKF1PMny/bt27F9+3YMGjQInTt3xpgxY3Ds2LEPNgD0ej2mTZsmfa9r1aqFoUOH4saNG3Bzc8OhQ4dAhgD50qVL8fvvvyM6Ohp6vR779+9HTEwMQkJC0LVrVzRo0ACTJ0/GhQsXsGLFilzrLVasGAoVKoSKFSuifv36sLS0xPLly3Hw4EEMGTIELVu2xJAhQ3DgwAGIoojHjx9jzpw5MDExQaFChXLkJYoiVq9ejd9++w1ff/012rVrhwkTJuDo0aPQ6XSYP38+zp49iwkTJqBevXro06cP/P39odFoMG3aNKjVasyZMwfm5uZo2bIltFotAgICcOTIEYiiCI1Ggy1btkAQBFhbW+dY9+rVq3H8+HEMHToUrVu3xrhx43DlypUcaWAI9l64cAGpqamIjY3FyJEj4eLigqFDh+Lly5eYM2cO3rx5A9HQBX7x4sUoXbo0Zs+eja1bt+LatWsgw6NF69evR/HixTFmzBgsXrwYo0aNQq1atTBu3DgsXrwYgYGBSE9Px/fff4+LFy9ixIgRqFOnDiZMmICQkBCo1WocPXoUW7duRdu2bdGvXz/MmjULb9++hZubGypXrgx3d3c0btwYJUuWzLEdsbGxGDt2LEqUKIEJEyYgOjoaY8eORVpaGjIzM3HgwAFs3boVPXr0wFdffSUFPVJTUzF06FDcunULY8aMgZubmxRcy46IcOPGDYwbNw4tW7ZEz549sWrVKgQFBYEMN4hXr16V2jCDBg1CixYtMHHiRBw8eBBr166Fra0tKlasCAcHBzRs2BAVKlSATqfD0aNHsXPnTpQvXx5OTk54/fo1rl+/Dr1eD51Oh23btsHe3h6jR4+W2h3p6emIjIxEQEAAyBAIjI+Px+3btyGKIsqUKQMbGxv4+vqiQYMGMDU1xevXr6V21tGjRzF9+nQp2LF+/XrMmTMHarUaaWlpWLNmDZ49e4YxY8bA2toaY8eOfW9vmfzk5s2byMzMxOTJk5GYmIiff/4ZOkOP1KwgwO3btzFmzBi0bdsW48aNw/bt26V23PvEx8ejbdu2UCqVmDFjBmxtbTFq1ChkZGTA3Nwcs2fPlm6UHjx4gDNnzsDd3R1z587F6tWrpbbenDlzcPz4cZChF9Ljx4+l9mVgYCAePnwIMzMz1KtXD25ubmjYsCF8fX1hYmIilUWtVks/WowdOxY1a9bEd999h5CQEKSnp2P8+PE4ffo0Ro4cCR8fH+zYsUNq68bFxeHcuXPQaDTS+QnD9ycmJkb60Wv9+vV4+PAhvv/+e1SrVg1t27ZFQEAAypQpA29vb1SsWBENGzaEo6Mjtm/fjosXL2Ly5MmoX78+unTpghs3buTYn+bm5qhYsSLMzc1Rv3596bt14cIF/Prrr/Dy8oKbmxvOnTuHrl27wtfXFxMnTsTly5cxZcoUaDQavH37FuvWrYOZmRmmTZuGQ4cOoW/fvnBzc8MPP/yA3bt35+gdneXq1auYM2cOOnToIH2XVq9enStgc+XKFUyZMgVdu3bFsGHDsHXrVuzYsQOiKOL27duIioqCTqfD2bNn8fvvv6Nx48YYNGgQZsyYgSdPniA5ORk9e/ZEWFgYJk+eDJ1OhwULFkh1QHaJiYno06cP3rx5g0mTJsHV1RXDhg3L9cMiGXp9X7hwAcOGDZN+qL5w4QJUKhVGjx6NpKQkfPvttyhSpAj69u2LoKCgHHkAwMuXLxEQECCda8+fP8fdu3chiiLS0tLw22+/SUGKK1euoHfv3rCwsMCUKVNw/PhxrF+/HqIowt/fH2vWrEGpUqXw7bffYu3atdizZw9Eox9V7t+/j44dO8Lb2xsTJkxAZGQkxo0bB7VaLQUIjx07hm+++QaNGjXCqFGjpOB4FiLCmTNnsGPHDnTr1g1VqlRB165dceTIEYwbNw5eXl7o2LEjEhISoNPp8P333+PZs2cYN24cKlasiO7du0uPssfExGDu3Llo3rx5jnazWq3G1atX8wyG3rhxA1OmTEH9+vUxePBgHD58GEuXLs0VbPpPos8oTan6Wz9/ll6vp0WLFtG3335LWq2WiIhEUaTz58/TN998Q3q9nkRRpDdv3lCbNm0oMTGR7t69S61atSKlUkm7d++mcuXKUVRUFGm1Wnrz5g1dvXqVdDpdjnV89913NHPmTMrMzCSNRkO3bt2iwMBAevnyJVWqVImePHlCKpWK0tPTaejQoTRt2jR68uQJ1alTh8LDw0kURdLr9bR//346e/YsabVaGjRoEJ09e1aat2HDBpo5cyZlZGTQwIED6aeffiJRFEkURXr69CkVK1aMnjx5Qnv27CE/Pz9KS0sjvV5PV65coVKlSlFSUlK2PUN0/fp1aty4MWk0GhJFkXQ6HfXu3Zt++eUXSklJoRYtWtDmzZspIyODVCoV7d+/n0qWLEnJycm0bt066t69O2VkZJBaraZvv/2WvvnmG9LpdKTX62nKlCm0bt06evXqFVWoUIEePnworWPdunVUq1YtSk9Pp/Hjx9OkSZNIq9WSXq+nlStXUqdOnSgpKYlq165Nq1evJrVaTRkZGXT58mUKDQ0lvV5PvXv3pq1bt0rbf//+fWrSpAnFx8eTKIqUmppKly5dIqVSSZmZmfTo0SPy8vKiV69eUVpaGrVo0YL8/f1JFEWKiIggNzc3unTpknSM5syZQ926daOQkBAqU6YMXb58mTQaDaWkpNDRo0dz7UudTkfz5s2jIUOGSGV68OABVapUiWJjY0kURYqJiaHmzZtTZGQkHTt2jMqVK0cxMTGkUqkoNjaWGjduTJs2bcqVb5cuXSgoKIiIiJRKJTVv3pyuXbtGISEh1KxZM4qPjyetVktJSUl08eJFUiqVNGXKFPr5559JpVKRSqWi169fU6NGjSg2NlbKW61W08iRI2nkyJGk0+lIFEUKCQkhLy8vunr1KomiSIsWLaJFixaRKIrZSvVOYGAgeXt7k4WFBVlaWpKlpSU5ODhQQEAApaamUrVq1ejw4cPS8dq5c6dUnhs3blCbNm0oPT2dlEolde7cmXr37k3VqlWTzpWMjAyqV68e3b9/X9qnW7ZsoT59+lBCQgI1bNiQbt++Lc07cuQI+fn5UWpqKqWnp1PLli1p9OjR5ObmRoGBgcbFJzHb9z41NZX0er10Xqenp0tlaNGiBe3bt4+USiV16NCBgoOD89wffxe1RpurPvzcH42hbvwUoaGhVLhw4RzH38rKik6fPk0pKSlUpkwZOnXqFOn1eho7diytX79eOv6PHj2i5s2bU0ZGBqWlpVGrVq2ob9++VKlSJXr8+DEREaWlpVHTpk3p4sWLJBrqwIMHD1Lr1q0pLCyM/Pz86O7du9K8vXv3Uu3ataV6b8KECTR8+HCqUKECnTx50rj4RET04sULevPmDWk0GkpPT6fZs2fT5MmTSafT0YIFC2jZsmUkiiK9fPmSihcvTq9evaKIiAhq1KgRxcXFSefewoULacKECRQVFUUtWrSguLg4CgoKoqJFi1Lbtm3p5MmTlJycTE2aNKGjR4/S4cOHqUiRIhQREUFarZbCw8PpypUrOa4rRERarZZGjhxJu3btIr1eT/Hx8VSrVi0KCAiQtnvfvn3Uo0cPyszMpBkzZtCqVauk61p20dHR5OHhQWfOnJGOw8KFC6lVq1aUlpZGAQEBFBERQWq1mpKTk6lz5860fPlySk5Opnr16tHp06dJrVaTUqmkY8eOUXR0NG3ZsoU6duxISqWSIiMjqW7duvTo0aNc6w4MDKTo6GhpP0+aNImWLFlCoijS+PHjacuWLSSKIsXGxlKdOnUoKCiIjh8/Tr1795a2Ra/XU5cuXWj79u2UmZlJvXr1otWrV5Nerye9Xk9z5syhWbNmkSiKNHXqVBo1ahSp1WrKzMykr7/+mmbNmiXlNXbsWNqzZw89ffqU/Pz8KCwsjFQqFSmVSho9ejT99NNPFBsbS2XLlqVr166RKIqUnp5OXbp0oZMnT5IoinTs2DHq1asXqVS52ycqlYoCAgJIo9FQZmYmhYSEUP369Sk0NJSioqKoSZMmOa77vXr1ort379K9e/eofPnyFBYWRqIokkajoeHDh1O/fv1y7FNRFGnMmDH0008/SdsUGRlJvr6+FBISQrdu3aIWLVqQUqmkXbt2UaVKlSg6Opq0Wi2FhobSlStXSKvV0uXLl6l27dqUmJhIoihScnIyFStWjC5cuECi4dz+/fffqXPnzpSenk4TJ06kSZMmSeuMi4ujunXr0osXL+jw4cM0YsQIad6VK1eoX79+lJmZSXFxcVS+fHm6ceOGtB0bNmygNm3aUEJCAlWvXp3WrVsnLXvnzh0qXrw4BQcH07Nnz6hr166UmZlJouF6Xa9ePXr9+nW2Pf7XGNeHf8fnzxJFkX788UeaOXNmjvrh0KFDNHToUGmfBQUFUadOnSgjI4MuXbpEzZs3p/T0dNq0aRPVrl2bYmJiSKvV0qtXr3LVNaIo0q5du2jChAmk1+spPT2dzp07R6mpqaRWqykkJISqVatGjx8/prCwMPL29qY7d+5I37upU6dScHAwlS9fnh4+fCh9J7PaekqlksaPH0/ff/89abVa0ul0NH36dBo7dizp9XpKSUmhdu3aSXVqdlqtlu7du0dKpVKqf/r160dnz56lZ8+eUdWqVaV2od7Q9uzRowfp9Xq6fPky+fn5UWJiIh0+fJhGjRolndenTp2iTp06kVKppIEDB9KGDRuk9vuVK1fo1atXJIoifffdd7Rr1y5pudGjR9PPP/8spb1+/ToFBQXlKvf9+/fJw8ND+p4rlUpq0KAB7dy5k/R6PalUKurduzf9/PPP0jF8/PgxFSxYkAIDA2nHjh3UuHFjSktLI51OR3PnzqUuXbpI7fXFixdLy2YXHh5OT548IY1GQyqVijZs2ECtWrWi9PT0HOk2btxI7du3p7S0NNJqtfT69Wvy9/enzMxM6t+/Px05coTS0tKoWrVqdPDgQdLr9ZSZmUm9e/em1atX07lz56hAgQIUGRlJoihKdfKoUaNIo9HQ4cOHacyYMaTX6+n06dNUoUIFio6OJpVKRXFxcdSyZUvasGFDjv0WGxtLdevWpZCQEGmfnD9/ng4fPky3b9+mVq1akUqlItFQb44aNYpWrFhBSqWSunXrRidOnCC9Xk9Lly6l0aNHS/tqwYIF9M0335BaraanT59S165dSa1Wk16vp127dlH9+vUpMTGR9Ho9/fLLL9SxY0fpPmvBggXS/cmcOXNo0KBBpFarc+zLWbNm0fjx46UyR0VFUa1ateju3bv05s0bsrOzowcPHpAoihQfH0++vr5SGzuLTqejHj16SNf2xMREqlmzpnT9ef36NTk4ONCTJ0/o2bNnVLduXencEkWRZs+eTZMmTaKMjAxq0KAB3bt3T5q3detW6t27N8XFxVGrVq0oIiKC0tLSqEKFCnT8+HESRZG+/fZbWrt2LaWnp5NKpaLAwEBq1qwZKZXKHNv6Z6jVmlz14ef8/FX5umcIAMhkMgiCAEEQIJfLpbE4smvYsCHq16+P/v37Y/To0di3bx+8vb0hl8ulNIIgoH///ggMDETXrl3xww8/4PHjxyhYsCCioqLw6tUrDB8+HO3bt0f79u1x9epVpKam4s2bNzA1NYWVlRUEQYBMJkPHjh3RuHHjHGUwLpdWq0VMTAwqVqwold/Z2RnW1tbSryVyuVzaPuNfQ5GtG6SbmxsUCoWUT/HixSEIAjIyMhAXF4fly5ejXbt2aN++PRYuXIjMzExpHVnLyWQy2Nvbw9LSUtovWetMSkqCQqGAu7u7lLZ48eKIjY2VeikYHwcAsLCwkLoU9urVC7NmzUJ8fLyUT5as5bLyzsrL3NwcKSkpmDp1Kr755hvpUaGssmctA0PvjYSEBHz//fdo3749OnTogP3790OlUsHOzg5jxozBvHnz8PXXX2Pp0qWws7ODra2tVIYsWfll/zerTFl/C4IAMnT9DQ8Px1dffYX27dvjq6++QnBw8CcNFunu7o5GjRqha9euGDJkCFauXAkbGxuYm5vjyZMn+P3336VzbsCAAUhKSsrR/VSr1SIsLAylS5eW9puzszM8PT0RHx+fY13Z93l2jo6OOH36NG7duoVbt27h2rVruX4lzczMxIsXL/Dzzz9L5Zk0aRJSUlKg1+thaWmJGTNm4NChQ6hRo4bUKyArf1dXV2nfFS5cGGlpaVAqlVCr1ShYsKA0r2DBgsjIyIBGo4GFhQUmTpyIzZs3Y/DgwShVqlSOMhnLyiMgIAAeHh4wMTGBIAgwMzND2bJlpUeMhA/UFfmRqakp9u7dKx3/W7duoWbNmsbJ8OzZM6xcuVI6/qNGjUJiYiLS09NhZWWFuXPnYv/+/WjUqBHKlCkjLWdjY4MiRYoAhn3v5eWF9PR0xMfHQ6fTwcvLK9e5odFoIAgCBg4ciFOnTqFAgQLw8/PLVpr/MTc3x549ezB06FD0798f+/fvR3x8fK5ffrKQ4ZERU1NTmJubS+suUaIE0tLSYGtrC2dnZ9y+fRsPHjxA7dq10bZtW9y8eVP6Fax69eqoU6cO2rRpg2+++QajRo3Crl274OXllWddnXWuCYKAmJgYZGZmwt7eXlp3mTJloDd0GUe2etn4HE1KSkJiYiKmTZsmHYcdO3YgIyMDarUaVlZW2LhxIwYNGoQBAwbgzp07iI2NhaWlJYYNG4Zly5ahf//+mD9/PhQKBZycnNC8eXMolUq8efMGz549g5eXF0qVKpVr3SYmJti4cSMGDx6Mfv364dixY7nqGGNRUVFSD5Os7ck63lmyvotCtmuH8Ty5XA4bGxvY2NhIy2aljY+PR2hoKPr27Yv27dujY8eOOHv2bI5HArPS5rVP30ehUOD169eYOHEivv76a4wePRpRUVFSd3WZTJaj7DKZDGTo0eHs7AwHBwep7D4+PnmuNzw8HIULF5bycHV1haenp3EyNGzYELVq1UL//v0xZswYHDx4EEWLFs2xXdn/Rbbrt/F65XI5ChUqJK3T0dERjo6OeT6CmZe89mFqairCwsJy1OXe3t6ws7OTxuzJXh6FQpHn9yQ/Mj7/89ovzZs3R4UKFdCvXz+MHTsWR48ehY+PT55ps5iZmUEURcyePRsDBgzAmDFj8OrVKyQmJqJAgQLo2LEjLly4AK1Wi8ePH6Ndu3ZITk6GQqFAgQIFpDIVL14cMTExuXolZ5f9nDA+N2A49nq9HvPmzcOgQYPQt29fXL9+HbGxsUhOToadnR2cnJxyrDNrHJqP1bdvXxw5cgRfffUVpk2bhtDQUGncoqx8sz79+/fH7du30a1bN0yZMgVBQUHSWE7vk327so6ZxvBIZ/ny5aW8XV1dYWlpKfUEzjqmgiDAzs4OVlZW0vc2a7oxOzs7XLlyBSNHjsTXX3+NDRs2ICEhIVdvgMaNG8PV1RVdu3bFt99+i8OHD+cYqym7rHUJ2erZ6Oho2NjYwNLSEoIgwNTUFAULFjReFESEyMhIhIeHo2fPnlJ7NygoCGFhYTnSZvWWyLonEgQBDRs2RNu2bfHmzRvY2dnlOOdLliwpPVL5KbIfTxcXF5iZmUn5Gp87eW27scjISOm6Jxh6Rjo7O+foQf4x15Hs1wVTU1M4OjpKY1fKst1LvH37FqamptK+FwzjZGZdXxwcHPJsNxv3DspCRHj27BlWrVoltQ1GjBiBpKSkz/qiiS/V+2tCJnF2dsaiRYuwc+dOTJo0CS9fvkTfvn1zPYNXpkwZ/P7779IN6KpVq7B48WLY2NjA29sbv/76K3bt2oXdu3fjypUrmDt3LlxdXQFDt2tkOyGN31hg/EWXGxp3WTe2ZHh+XqVSvffLmhcbG5tcX46scUdMTExgZWWFqVOnYteuXdi1axeOHz+OBw8e/GHFn52VlRUUCkWO5+wSEhKkL3xesr7ADRs2xNatW7F69Wr4+flh8uTJ2L17t3HyXIgIV69exYgRI9C5c2esWrUK8+fPh6WlZZ43OdbW1rCyssKiRYukbT1//jx27NgBe3t7fPPNN9i9ezcWLVoENzc3dOrUCffv3zfORmJ8vIwJggAHBweULVsW27Ztw65du7Bnzx4EBATg22+/zZU2i3G+ZmZmGDduHA4ePIgZM2ZAJpNh8ODBiIiIQKFChTB06FBpe/bu3YsLFy7k6DqvUChgb2+f4zzKGsfD+ILwPqampihdujTKly+P8uXLo0yZMrC0tMyRxszMDJ6enjnOpUOHDuHYsWOwtraGVqvF+vXrUblyZdy/fz9H18mMjAxkZmaCDF2vU1NTIZPJYG5uDktLyxzzsoIrgiBAp9Nh69atqF27Nnbv3p2rO+b7FC5cGGrDmBRZn4iIiE/6XuUncrkcJUqUkI5/uXLl8gwUFipUCOPHj5eO/4EDB3D27Fk4ODhAo9Hgl19+QdWqVXHz5k3ExMRIy2kMA11nSU1NhUKhgJWVFczNzaXjD8Nz8mQYnBGGNyqUKVMGISEheP78uZRHFiLC9OnTkZSUhAULFmD9+vXo0qVLjmOfl6yGd1ZdQoZHAogI5ubmqFWrFnbt2oW7d++iXbt2qFSpEm7evImAgACUK1cOLi4ucHR0xMKFC7Fr1y58//33CA8PR//+/XNdV4zZ29vD1NQUOsOzwTA8kpH9ZuN99aqVlRUsLCywYMEC6TicO3cOhw4dgkKhQN++fWFpaYnFixdj7dq1qFGjBkRRhCAI6Nq1K3YZBoj28fFB165dcfnyZTg7O6N8+fK4desWzp8/j5o1a+bo4g7D/pk6dSpMTEywcOFCbNy4Ea1atcpRF+e1rwsVKiSNl0GGcWcePnyYZ9o/8r59YmNjgxIlSmDz5s3SPrl27RqWLFlinPSjkeHRgaVLl2L48OH45ZdfsGLFCtjY2Pxh2S0tLaEzjPOQtd1ZYzgZc3BwyFH/qVQq6SYqOxcXFyxZsgQ7duzAhAkT8OzZM/Tp0+cPz7W8kKEOzlpnRkYGMjIycgzU+UeM01hYWMDW1jbHzVpSUhLS0tLee9zeN53l5ubmhqVLl2LHjh0YN24c7t+/j169euW6Oc7u4cOH6N69Oxo2bIjly5dj2bJl8PLygiiKkMvl6NGjB/z9/fH8+XOkp6fDx8fnk9p6xufAh2SNSVKxYkUsWbIEv//+O3x9fSGKIiwsLCCKolT/kWHQ7bzaeR+SNZbK2rVr0bhxY8yaNQtbt27NUc6s/69YsSI2b96M3377Da1bt8bChQuxatWqT16nQqGAtbU1lEplju9wRkbGBwNVH0JEmDt3Li5duoSpU6di7dq1GDRokPS4SHaFChXC8uXLsWPHDowYMQL379/H1KlTc6XLi2D48Sk6Olq69mU9np0Xe3t7lClTRho3Zvfu3fD398fEiRNznBuOjo5QKBQ59mVoaChevXoFZ2dnaTuyypiQkCDdL/yT7OzspPqUDOOUpaWl/aV244e2KasNkvUjCBnG1cnaL1n1cta8rHbzh8pTqFAhfPfdd9J1cP/+/Thz5gycnJyMk/7n/LlvWz4iiiI2b96MatWqISQkBE5OTqhTpw4yMjJyBBF0Oh2GDx8uPTfn4+OD2rVrIzU1FYULF0aRIkVw8eJFwBBN7dKlCw4dOiRdQA4ePIjExEQ8fPgQAwcOxMOHDwHDjWZgYCDCw8NzjPVgamqKevXqYcmSJXj06BFSUlJw8OBBFClSBCVKlJDSfYhg+DUzMjIS27ZtQ0JCAq5fv44TJ04AhkZiw4YNsXnzZukmY8WKFfj2228/GOU3VqBAAXh4eGDlypWIiorCmzdvcODAAfTp0yfXc+VZyDDIXM2aNbFkyRIIgoBy5cqhRIkS0sB81tbWCAkJQWhoaJ6DAYWGhsLe3l765ezMmTNQqVRISUmRIqwvXrxAeHg4nJ2d0bRpUxw5cgQ6nQ4pKSkYMWIEfv31VwQHB6NMmTI4fvw4rKysULNmTVhbW+eKlgqCAAsLC4SGhiI4ODjXfGMVK1ZEeHg4Ll++DJlMhqCgIHTt2hWPHz82TgqZTIaAgAAolUrcvHlTen3v06dP0aRJEwQFBcHOzg5NmjSBjY0NtFot6tevj4sXL0oV5MGDBzFy5Mgc+8rExARNmjTB9u3bcffuXSiVShw6dAg2NjaoUqVKthL8ebGxsdDpdKhXrx6OHz8u/XL/66+/Yvr06dBqtTh9+jSePXuGrVu3olOnThg+fLg04G9cXBwWLlyIsLAwhISEYOvWrahXrx5sbW1RvHhxzJ8/H2/fvkVMTAz27t2LJk2awMrKChs2bEBkZCTWr1+Prl27YsmSJTm+Q+/Tpk0bPH78GNevX0dKSgqOHDmCFy9eoFKlSsZJ2R8gw3PZWq0WtWrVwrFjx5CQkABRFLF9+3ZMmjQJOsM4LK9evcLWrVvRrl07jBkzRvpFRaVSYc6cOXj9+jXCwsKwY8cO1KlTBx4eHihatCgWLlyI8PBwREdHY9++fWjbti1sbGxw6dIlHDx4EAsXLsTcuXOxbNmyXN9JjUaDqKgolCxZEhYWFggODsbhw4ehVCqlOi7r10cY6vmYmBh4eHjA1NQUO3fuRHx8PJ4+fYoDBw6gbt26EAQBtWvXxvXr1/HkyRPUqFEDxYoVk4Jz1atXBwwDfJYuXRovXryAg4MD/Pz8oDUM2P0hzs7OKFWqFHbs2IG4uDi8evUKK1asgK+v7x8GMF1cXNCiRQscOnQIarUa6enp+O6777BkyRIkJiYiIiICPj4+sLCwwMOHD+Hv7w+lUonIyEjUqVMH+/btg7m5OXx9feHp6Yn09HQIgoCmTZti9+7duHbtWp49cLLGSCpTpgzMzc0RGBiIM2fOIDU1VdrerPEysqtevTpMTEwwbtw4bNy4ESNGjMDbt29zpPmrPD09IQgCDh06BL1ej4SEBAwfPjzP8UyMWVlZISEhASEhIbkCFmFhYXBycoKzszM0Gg127dqFuLi4XNuYnSAIKFKkiFQ/xsXF4eHDhzh58mSeNyhZgyM+efIEMTEx+OWXX/D69escaUVRlG4eQ0NDpTaMUqmEXq+HhYUF0tPTERwcLA349yF6vR4HDhzAw4cPERcXh7Vr10Iul8PT0xM2NjZ4+fIlIiMjER8fj8OHD0vfI4VCAQsLCzx58gRhYWE5nkO3sbFBjx49sH37doSEhCAmJgYbNmxAyZIl8/ylmX080TBOUL169fD27Vu4urrCz88vx3cvu6SkJCQkJCAqKgrm5uYoXrw45HI5rly5gqioKCnQkPVmuZkzZ6Jq1aqwtraGu7s7PDw8sGrVKkRFReHt27fYv38/+vXrB2tra3h4eODZs2eIj49HeHi4NMA1EUGhUECj0SAoKEgaXylLVn1csWJFKBQK3L59G3fv3kViYiLc3NxgYmKCJUuWIDo6GkFBQTh48GCe22Zvb49Xr14hLi4OsbGxOHDgAARBgFarRb9+/aQAaNmyZVGzZk0pSGFmZoYXL17g7du3SEtLw5AhQzB9+nTodDqUKlUKderU+VO9E8zNzdGwYUMsW7YMT548QWpqKvbt24dSpUpJPbQ/lU6nw7Nnz1C0aFHY2dkhNjZWGivCuJ28evVqtG3bFjExMShQoAAaNGiQ5357n6pVq6J79+744YcfsHHjRsydOxdv3rzJsR+Sk5ORkJCA8uXLIyoqChcvXoRMJsPLly/Ro0cP6V4ni6urK1xdXaXr2/PnzzF8+HBcv34dZcqUQWJiIk6cOIGkpCTcvXsXFy9eRI0aNaTlIyMjoVKpUKBAAQQHB0vn2q1btz75+HyKrJdG3L59GykpKTh16hQUCoU09t3nVqJECZibm+PQoUNISkrCw4cPsWPHDtSqVQsw9HhctGhRjnZzVvsk+3ll3EY7ceIEEhISQETYtWsXJkyY8EnnxL9VvgiGCIYuqNlPgKwT4n3Tsj4ymQxdu3ZFy5Yt0blzZ9SsWRMLFizAzJkzYZNt8ESFQoEpU6bg+fPnqFevHurVq4f79+9j+PDhsLOzw48//ojdu3ejTp06aN26NapXr462bdvC1tYWM2bMkEaL7tSpEzp27IhmzZpBLpejffv2WLFiBbp06YKQkBCpXHK5HL1795bS165dG3v37sXChQthZ2eXY9vy2tYsnp6eGD9+PL777jvUqVMHY8aMQYMGDWBiYgKFQoFx48ahYMGCaNasGfz8/HD79m3MnDkTZmZmH1xH9v1nZ2eH5cuX48WLF6hXrx6aNWsGBwcHjBs3Lkf3syxZy9nb20ujcNep83/t3XWcVdXCxvFnn+lghh5CcujubmkpRQVUDGxRMAAFFFEQLBQUr3lFATERMBC5ChJKd9cAMzDFdNc56/2DOeedGUKse713/75+5iNnd521137O2nt39lzk3nzzzbIsS3fccYeWLVumq6++Wrt37y62DJZl6ZprrvE83K5z585KTU1Vz549tXDhQhljPM0hb7jhBqWkpGj+/Pme/de3b18FBQXp7rvvVnh4uF5++WU9++yz6tChg4YPH64RI0aoXbt2nmVWYWAxaNAgJSQkqG/fvp7wq+g6utfNsiyFh4dryZIleuGFF9SpUyeNGTNG119/vVq2bFlsupZl6dZbb9W0adPUoUMHLVu2zNOssl69erruuus0fPhwdezYUTfccIOGDh2qatWqqX///mrWrJn69u2rzp07a86cORo7dqyCgoI803Y4HLr++ut1zz336NZbb1WHDh20YMECvfPOO8Vuayq6f4oque+KCggIUJ8+fTR37lwdP35co0ePlpeXl3r16uUJRu6//34lJSXp1Vdf1dSpU1W9enXdf//9CggI0KJFi2QVNnn18/PT1Vdfrd69e8vb21s33XST/Pz8NG3aNGVkZHimmZiYqMcee0x79uzRBx98oJdeeklVqlTRhAkTdPToUa1evbrYMhbdJ+7PjRo10v333+95C8TkyZM1ffp0NW7c+Fe3h90U3XYlBQQEaMCAAZozZ46ioqJ03XXXqWrVqp6y5IMPPtC9996rhIQEzZ8/XzNnzlS1atX00EMPSZI++eQTqbCMql+/vvr3769evXopMTFR9957rwIDAzVjxgwlJiZ6bmXMycnRY4895nmg20MPPaR69erpmmuukb+/v1544YVilWxfX1/deeedev7559W+fXs9+eSTeuqpp3To0CFFRUWpSZMm+uSTT7RkyRJVrFhR9evX16xZs+Tv76+nnnpK7733nrp06aIBAwaoVatWGlr42vN69eqpRo0a8vb2VoUKFRQaGqp27drpyJEjnlsbBw8erJEjR+rGG29Uhw4d9PTTT+vxxx8vdl5xK/o98/Hx8Ty8tWvXrurTp4/KlSune++91/ML7KWOT39/f73++us6e/asevTooV69esnpdOrBBx9UtWrVNHHiRD3yyCNq37693nzzTT388MNat26d8vLyNGPGDM+bAAYOHKiuXbuqZ8+eUuFrPJOTk+Xj46Pw8PCSs5Wfn59uvPFGPfroo54n7T/66KP65ZdflJSUpObNm+v111/3vEHKvQ6hoaF6/fXX1blzZ6WlpemWW27R4MGDPetX8vxxsX+X/FyyX7ly5fTqq6/qo48+UteuXTVgwADVqlVLPXv2lFXk+15yXElq06aNgoKCNGjQIL399tueXzMty1K3bt2Ul5enzp07q2/fvgoMDFSHDh305ZdfeoYpyj3dsLAwzZ07VwsXLlTXrl112223qWXLlhf8omcVnuMaNmyoa665xnOx2759+2LL7OXlpREjRqh379667rrr1KFDB7388suaNWuWgoOD1bhxY7Vu3Vo33HCDZs6cqYKCgkuus1V4+2njxo01fPhwde3aVW+99ZaefvpplSlTRq1atVLVqlXVs2dP9e3bV9WrV/fcmhQSEqLx48frueee0/Dhw5WSklJsGSdNmqTq1at7jq2DBw9q/vz5xeozF9tmdnC59S/arehn978dDofn3D5s2DB16NBBr7/+ul555ZVidQGr8JaDTZs26fXXX1fHjh3Vvn17DRw4UJ06ddLOnTvVv39/vfHGG0pLS1NAQIDatWunb7/9Vn369JGXl5dCQkL02muv6ejRo+rRo4fn4fYPP/ywHA6HbrvtNhUUFKhHjx4aPXq0wsLCPMeav7+/unXrpltuuUXjx48vdjtvxYoV1blzZw0cOFAdO3bUhx9+qNGjR2vhwoXy9vbW888/r6VLl6p79+4aOnSomjRpooCAAM/4bi1atFClSpXUtWtXDRkyRHXq1FFQUJDnYevffvutunTpou7duys6Olo33nijHA6HBg4cqE8++UTDhg3TgQMHNHnyZO3cuVPdunXzHKt33nnnRb+jl9tHXl5euuOOOzRgwABdd911nh8M5s6dq9KlS0tFbg+72PgXm777/PDtt996bo0bMmSICgrf5lY0EBgxYoSqVKmifv36qWPHjpozZ47GjBlzwXRLzsP9OTAwUK+88opuu+02JSYmqkuXLsXK5zp16mjnzp165ZVXVLNmTS1evFhz5sxRp06ddOutt2rIkCFq06aNZ7oqPCdPmzZNK1asUNeuXdW/f3+1aNFC1157rSpUqKAnnnhCEydOVOfOnTV8+HBdf/316tSpk/z8/NSmTRtNnz5dmzZt0uDBgxUUFKSePXvq5ptvvuAW1KL/ti5Sryu6DS71V1T//v11xx13aNSoUerUqZOef/55TZ06tdjtWxebflHuzxcbrmg/q/A2nGnTpunNN99U586dNXToUPXu3dtTBwkPD5e/v7+n3uzl5eW5dnL/+fv7q3///nr11Vd16tQpXXvttapevbrnmsH9Ugx3q7//ZZb5E6OyjMwLf53/MwUHXVi4XYmiq1j0IHN3d3cr+rlkP5fLpaysLOXk5CgkJMTzPIGiTOG7md0tD0JCQjxfOFP4qqO0tDT5+fl57vMq2S8gIEDu+9Dd/Uoui/vf7u5ZWVnKzc1VSEiI55fBkuOU/FyUMUb5+fnKzMwstszueZjC5m/5+fme+/Xc47mHK/nZ/e+in12FT3F2OBzF7t3+tek4nU6lpqbKx8dHwcHBxbZpyXFLTsc9Ty8vLwUV3oNYlCnSpF6F+zktLU1eXl4XzMvd7C0gIKDY/ivqSpapaDdT2PTbve8DAgIuOd2cnBzl5uaqVKlSxQpuU/g60oyMDJUqVUq+vr7F+uXk5Cg7O7vYMwZKMkVuswoNDZV34TMH3P10mWPH7VL9S27jzMxMFRQUKDQ0tNiwusR2cn/OysqS0+lUSEjIBfssIyNDLperWD/3fEtOs+RyXmwdTOH+dm/Tot/3S03nr5SXX6C8vCtvjfV7+Pn5yOdXWhaUdLFtV1TR/W8VHu/u51O4L3KKcg9Tknu8/Pz8C8pVU/hKWGOMp9/FlutS+8097ezsbIWEhHgChctxL6cpvDXLz8/vgu9uyfmV3Bbubu5m0SW/u0WVnJaKlFXehbcM/dp6FuUe17IsT3miIsuTk5NTrKx3y8/PV1pamvz9/T3zzMnJ0aFDh4q9CeRi83ZP232uKln5vJhTp05p3LhxmjhxosqWLavExEQ999xzmjlzptq1a3fBuhb9fLl+JT+bEueK4ODgiw53sc9FA5CS6+Mu2933dhcdz+1i0zWF54X09HSVKlXqsiGXKTz+Lcu66DlORaaZmZmpnJycC441c5Fy2j2eu39J7jpD0eVTkWPLt8gzdVRkGUpuv6L/dpfl7nLefYwUnf/FPv8Z/ur6q/5AHVYXOe4u1q3kMeRmFd7Sl5mZ6fn+XawOq8J9ULS7u2x1h7TuaZ86dUorV67URx99pNWrVxcLcS9VvqjId8IdQlglysOi61ByXdPT0+VyuTzTLHrMOp1Opaene6arwl/Hly1bpiVLlmj58uUKDQ2VKWx1HBAQUOxHPVOk/u5VeBt60X7uZXDPzz2su65fcnndw7sVXcein93dSpa7RefrHv7XPruZIvWXoKAgz8XspZax6HHhrvsVXc6Sy+z+HBsb63mlc+vWrZWUlKQpU6borrvu0u23315kLv8/HXe5VvI6qCT39r1Y2ek+hgIDAz37UBcpx9zTCAwMvOS5teQ6ldyubiWHK9rNzRTWxbOyslSqVKnL1qNLfnYr2f3XPruvj/z9/eXv739B3chdb77Y8VxyXd2fswtvTQ8NDb2i8/SVyMvLV17+X9fC5I+UrZJNwhAA+G/2dw1DgGPHjmns2LFq1qyZpk6dqjJlypQc5HcrKHyt45w5cxQZGanQ0FBNmDBBw4YN8zxUDvgz/NX1V/0P1WFzc3P14IMPKjk5WU888YRat279p1ww/dkWL16szz//XDfffLOuvfbaC55lhD/GFD4b6cUXX9TWrVtVrlw53X777br11lsveQs87Ikw5E/0R1cWAP4bEYbg76zkr1V/potVUf6K+cDe/ur6q/7H6rAlf1H+u/oryyacV7KMZlujpL97GHLxm70BAACugLv57V/BPe2ifwD+s/5bvo//Dcv4347yGf/tCEMAAAAAAICtEIYAAAAAAABbIQwBAAAAAAC2QhgCAAAAAABshTAEAAAAAADYCmHIX6CgoEA7d+5UdvZf/6q2vzOXy6X9+/frxIkTF7x66+8mJiZGu3btksvlKtlLkpSbm6s9e/aooKBAxhgdOXJER44ckcvl0tGjRxUfH19ylCvmdDq1a9euPzQN4O/I5XJp7969+vHHH5Wamlqy999STk6O9u7dK6fTWbLXf63s7Gz9/PPP/zX7AMDfx/Hjx3X8+PGL1uOMMdq1a5fS0tJK9rrAsWPH/m31wby8PO3evVu5ubkle/1PuNw+AfDbEIb8CSIiIjRv3jxPoZSdna0nn3zS9he3BQUFeuWVV/Thhx9eMmT4OzDGaO3atZo2bZoKCi58D7YxRikpKZoxY4ZycnIkSW+//bbefvttFRQU6J133tGmTZtKjnbFcnJyNGXKFG3cuLFkr7+cMUarV6/WvHnzLrruwO/lPrbGjBmjN99887+mPExMTNRzzz33u8Ls7777TvPnz//bfZfi4+N166236vDhw5KkhQsXaseOHSUHA/A3k5KSopdffvl3lUd/BmOMPvzwQy1YsEBOp1OnT5/W3Llzi12EP/300zp+/Hix8Uoyxuj999/XwoUL/y1Bc3JysqZNm6bk5OSSvf7rGWO0YMGCf9u2BP7XeU2fPn16yY6/V17+X1sB9PX1KdnpVxljlJWVpcjISCUmJsrf318+Pj6yLEsJCQkyxigpKUmWZcnHx0f5+fmKjo5WbGysvL295efnJ8uyZIxRTk6OoqKidO7cOfn4+MjX11f5+fnasmWLPv30U3Xp0kVOp1MhISHq27evKlasKKfTqaSkJDkcDkVGRio1NVVBQUHy8vKSCn85PXfunM6cOSMVXhjn5OQoICCg2HpkZGQoJydH2dnZyszMVEBAgGfcs2fPyul0KjAw0LOsmZmZioyMVEJCgvz8/DzrnJaWpoKCAqWmpurMmTMyxiggIMDzbnCn06nY2NgL+hUUFCguLk4Oh0NRUVFKTU1VcHCwZz1yc3MVFRXl2W7+/v7y8vJSt27d1LFjRxUUFCglJaXYMqanpys9PV3+/v4qKChQbGysoqOj5XA45O/vf9H3lbtcLsXHxysqKkr5+fkKCAiQw3E+08vLy9OZM2c8y+meRnZ2tpKSkmSMUWJiooKCgqTCSkZkZKTy8vJ09OhR7d69W6NGjZK3t3eJuUrp6elasWKFrrvuOvn6+qpjx47q2rWrAgIC9N1336l69epq0KCBJCkpKUmZmZkKDAz0HF9RUVHKzc1VUFCQZ3nd8vPztWjRIrVu3VqNGzeWMUbZ2dmeY9a9/5xOp+Lj4+Xn5+fZ7vn5+UpISPDMKzExUZGRkcrOzlZwcLAcDodcLpfnOHDPOyEhQV5eXsrPz9fSpUu1du1adezYUV5eXvLz81N6eroiIyOVnJzs+c7gP8fpcsnp/GsDRW9vL3mVODavhMvlUlxcnKKiouR0Oj1lRmpqqmbNmqWGDRvqySef1FVXXXXBdys7O9vznS1a3mZlZSkrK0vZ2dmKiopSXl6egoKCPGWCu5yOiYm5oAy72PK4j/uCggKdOXPmgvK9qLS0NH399dcaMGCAYmJilJ6eXqzMdpevp0+f9pRf3t7eysrK0meffaaff/5ZHTp0kJeXl9LS0uTt7S1vb28ZY5ScnKyCggL5+flJheV6enq6AgICVFBQoJiYGMXExMjLy6tYGZifn+/pV7Rsy8nJUUZGhvLz83X69GlPGVNynUqVKqUbb7xRNWvWVFpamt555x35+PioYsWKnvIkIyNDkZGRSktLK7a+6enpys/PV0pKiqKjo+Xj4yMvLy+dPXtW8fHxCggI8JQP7uWMioqSJE95D/zd/dX1V/2OOqzT6dSRI0f05ptvqmPHjnK5XMXqFZGRkcrKyvKc60tKSUlRTk6OUlNTdfbsWU9d4uzZs4qJifGc240xOnfunLy8vDxlVVJSkry8vOTl5aXVq1fL6XSqW7du2rlzpz766CN16dJFBQUFCggIUJ8+fVStWjXPeO56YlJSUrHy4fvvv5ck9ezZ01M3iYuL09mzZ+VyuYqV40W5XC4lJibq1KlTysnJKVaPcjqdnvLeGOMpczIyMrR06VINGTJEwcHBSkpKksvlkq+vr1QYlrg/l9xOvr6+8vHx8Zxjim6nhIQEORwOxcXFKTo6utg1hdPpVExMjM6ePauCggIFBgZedL84nU6dO3dOUVFRKigoKFZmJyYmesrXxMREBQYGysvL64Lt8v3338sYo169esnhcHjOH9HR0cXOe/n5+Z59kpCQ4OnuLu8zMjLk7e2tlJSUYvV99zFS9FyUmZmp9PR05ebmKjU19YLy3X1N4q6DFt1P7npoVFSUsrOzPevlvkby8vJSQkKCZ15paWmKjIz01KUdDoeswmuHlJQUz3QCAgLk5eVV7NiLj4/37EdfX1/PvomLi9OZM2cuuHbAX8/pdMn5F/4o/lvL1pIsY/68NlYZmX9tch0cVDwguBIJCQmaMGGCdu7cKW9vb1WtWlVz5sxR3bp19eijjyo1NVX79+/XE088oaFDh+rFF1/Ul19+KR8fHwUFBWn69Onq3Lmz0tLSNGXKFK1fv14BAQEqU6aMZs+erdKlS2vEiBE6cuSIGjVqpCFDhmjSpEkaP368nnjiCeXk5GjWrFkKCQlRVFSUYmJiNHLkSD300EMyxujTTz/VG2+84SkQS5curbZt2+qJJ57wrIMxRkuXLtUvv/yiPXv2qG3btpo5c6Y+/vhjzZ8/31MY3X///br55puVlJSkKVOmaPv27fLy8lLVqlX10ksvqV69enr33Xd1/Phx7dixQxkZGfLx8dH06dPVu3dv5eXlad68efriiy/kdDrl6+urRx99VMOHD9eZM2c0ZswY1atXTwkJCYqNjdXgwYP1yCOPKD8/X08++aTWrl0rb29vlSlTRvPmzVO9evX04osvyqswFHn22Wf13nvvqVKlSiooKNCUKVNUuXJljR07Vm+99ZaWLFniKXinTJmiq6++usiePH8hs3DhQr333nvKzc2VMUZ33nmnHnjgAaWmpmratGnauHGjfHx8VLp0aU2fPl0dOnTQL7/8ohdffFG+vr46d+6cVqxYoT179ujpp59WRkaGQkJC5OPjI5fLpa+//tpzoeJmjFFsbKzuvfdeffTRRwoODtbChQt16tQpPfHEE5o0aZK6d++ua6+9VqdOndKYMWN01113aeTIkVq7dm2xX5mHDRumhx9+WP7+/p7pZ2ZmavDgwbr//vt1ww036Ny5c5o6daq2bNkif39/lStXTi+99JJq1aqlBx98UPfff7/atm0rSdq0aZM+/vhjzZkzRz/88INmz56t9PR0WZalQYMGaeLEifLy8tKECRP05JNPqkqVKjLGaPz48RozZozy8vI0evRoxcbGqmHDhho7dqw6deqkxx57TJGRkTLGqEWLFnruuedUpUoVzzLj3ysvv0B5efklO/+p/Px85HORIPBy8vPz9c9//lMffvih8vLy5OXlpfvvv1+33nqrPvzwQ02aNEn+/v6qVq2a3n33XTVp0sQzbm5urqZPn66VK1fK19dXoaGhmj17ttq0aaNVq1bp66+/1tGjR5WZmamcnBxNmDBBI0eOVE5Ojl566SV99dVX8ikMpadMmaL+/furoKBAb775pj7++GPl5+fLsiw99NBDGj16tDIzM/Xkk09q8+bNkqTy5ctr1qxZatasWZE1kqKiojR8+HBVrVrVU3EaNGiQJk+erMDAQB04cECTJk1SYmKinE6nunbtqqefflr79+/XHXfcoXPnzqlBgwYaO3as9u7dq969e6tv377Kz8/XPffco0aNGmnixImSpDlz5sgYo4cffljz5s3TZ599Jm9vbwUGBmratGnq2rWrnE6nXnvtNS1evFh+fn7y9/fXE088ob59+2r79u368MMPde7cOWVnZys6OlpPPfWUBg8eXKyil5qaqpEjR+q5557TqlWrNG/ePIWGhqp27dp66aWXFBwcrMmTJysiIkKWZalRo0Z66aWXVL58eX300UfatWuXJ6wuVaqUevbsqc2bNys2NlaVK1fW/PnzVbZsWb333nt65513PBdVTzzxhK655poLKvLA381fXX/V76jDpqamatSoUdqwYYMaNGigDh066MUXX9SmTZs0Y8YMz21v/fr10+TJkxUSEuIZ1xijV199VYcPH5bL5dLJkydVpUoVDR48WJ9//rliY2PVoEEDvfTSS3I4HHrwwQc1duxYtWvXTvn5+Zo6dapGjhypli1basqUKXK5XLr33nt1yy236MCBA2rUqJEGDhyoKVOmaPLkybr11lsVHBysGTNmyN/fX/v371dycrJ69+6tF154QT4+Ppo0aZJ8fHz07LPPyhijDz74QP/85z89y/zII4/o+uuvl1dhEOv2ww8/6JlnnvG0zO3fv7+efPJJ+fr66r333tO7774rY4z8/f1111136ZZbbtG5c+d0++236/3331eFChU0ZcoUtW7dWiNGjJAxRi+88IIaN26swYMHa968eTp48KBnO1WuXFlDhw7VZ599pri4ONWrV08vvPCC/Pz89Pjjj6ts2bI6fPiwEhMTVb9+fc2ZM0e+vr565513tGDBAk95N2nSJA0fPrxY+eeu97/66qtyOp3y8fHRqFGjdN9998nHx0fjx4+XZVmeMKJ9+/aaPn36Bfv28ccfl5eXl2bMmCGn06k33nhDixcv9gRPjz76qK6//nqdPn1aM2bMkGVZOnbsmJYuXarExERNmDBBMTEx8vPzU3h4uFwul9577z15eXlp5syZ+vHHH2VZlkqVKqUXXnhBzZo104oVK7RkyRKlpaUpNDRUCxYsUGBgoGe53C2sc3Jy5HK5PNdD/v7++uqrr/Tiiy8qOztbxhhPv8zMTD311FOeHyoWLlyoyMhITZ8+XQkJCXK5XOrZs6eefPJJlSpVSmvXrtXMmTOVlZWlgoICDRs2TI8++qgsy9Kzzz6rgIAA7du3T8nJyapatapeeeUVhYaGasmSJZo/f75UeC0xbtw43XrrrQQi/yZ5efl/aeD8W8vWC5g/UXpG1l/691s5nU7z8MMPmzvvvNPk5+ebrKwsc88995h7773XZGdnmyFDhpgJEyYYp9NpXC6X+de//mX69OljEhMTTUFBgZk7d67p2LGjSUxMNCtWrDAjRowwubm5Jj8/30yZMsXcdtttJjs722zdutXccMMNnukUFBSY4cOHm4iICHPgwAETHh5uPvvsM+N0Os3Ro0dNr169TGpqqjly5IipUqWK+eabb4zT6TT79+839evXNxMmTCi2Hi6Xy/zzn/80zZo1M2fPnjUul8ucOHHCdO/e3URERBiXy2V27dpl2rdvb06ePGm++uorc+2113qWddy4cWby5MkmPz/fPPvss6Z69erm5MmTxul0ms8//9x0797dZGdnm++++86UL1/e7N692zidTrN27VrTokULc/r0aRMREWHKli1rPvzwQ+N0Os3OnTtN7dq1zeHDh82mTZtM3bp1TUREhMnPzzezZ882w4cPNzk5OWbixInmiSeeMMnJyaZXr15m5cqVxuVymaioKBMWFmbWrl1r1q9fbzp06GBOnz5tCgoKzIIFC0y9evVMbGxsse2we/duU69ePbNhwwbjcrnMsWPHTPfu3U10dLRZsWKF6dixo4mJiTFOp9MsWLDA3HHHHcbpdJrVq1cbf39/89NPPxmXy2USEhJMhw4dzOOPP25yc3NNYmKi6dmzp+nTp4/JyckpNk9TuP2jo6PN4MGDTVpamnG5XGbevHlm7NixJicnx4wbN8588cUX5ty5c2bIkCFm8uTJpqCgwGRmZpo+ffqYn376ybPvGzRoYNavX19s+hkZGaZnz57ms88+M8YYs3jxYnP77beb/Px8z/4bP368ycvLM1OnTjWzZs0yLpfLOJ1Oc+edd5pZs2aZjIwM07lzZ/Ptt98ap9Npzp49a1q3bm2+/PJLk56ebq699lpz+vRp43K5jMvlMjfeeKPZvHmzcblcZv78+Z795XK5zNy5c83o0aNNXl6eycvLM7fffrt5++23iy0z/r1y8/IvKA//7L+8/PySs70sl8tlNm/ebKpXr242bdpknE6n2bNnj2ndurWJiIgwTqfT3HPPPWb27NmmoKDggnEPHTpk+vTpY9LT001+fr557rnnzMiRI016err5+OOPTeXKlc3BgweN0+k0W7duNa1btzanT582mzZtMt26dTNRUVHG6XSa77//3lx77bUmPz/fbNiwwVSuXNls27bNOJ1Os23bNtO5c2cTExNj3n33XdOyZUtz7tw543Q6zbx588yNN95o8kusd2RkpAkLCzMLFiwwTqfTxMTEmFatWpmvvvrKZGRkmJEjR5p58+aZgoICk5OTY4YOHWo++eQT43Q6zauvvmpGjRplcnJyPPO46667jNPpNCdPnjQVK1Y07dq1M5mZmSYtLc20adPGfPrpp2bNmjWme/fuJjY21hQUFJh//OMfnmXdunWr6dOnj0lKSjJOp9MsWrTIdOjQwcTFxZl169aZRo0aebbF8uXLzcCBA01aWlqxdUpKSjKNGjUyP//8s3G5XOahhx4yy5cvN06n0xQUFJi77rrLvPjii8bpdJqkpCTTtm1bM2fOHM86XXPNNSYvL8+kpaWZ9u3bmxEjRpiCggITExNjGjRo4Cn/WrdubX755RfjdDrN0qVLTe3atU1MTEyxZQH+jkqWh3/F3+9x9uxZM3jwYJOammpcLpfJysoyXbt2NUuXLjVOp9NER0eb1q1bm08++cS4XC7PeC6Xy0ydOtX06NHDJCUlmaSkJNO7d2/Tq1cvk5aWZnJzc80111xjNmzYYJKSkkzPnj3N2rVrjcvlMjk5OWb06NFm48aNxul0mscff9xMnDjR5Ofnm127dpnrr7/eFBQUeOoho0ePNtu2bTOHDx82derUMZMmTTK5ubkmJSXF9O3b17z//vvG6XSaCRMmeOqie/fuNV26dDGnTp0yTqfT7Nixw3Tp0sXEx8cXW48zZ86Y8PBw8+mnnxqn02mOHDliateubVatWmU2b95s6tSpY3bs2GGcTqf58ccfTalSpcyOHTtMTEyM6devnzl79qzJzc01o0ePNm+//bZnmR955BGzePFi43K5zFNPPWW6detmEhISTEpKiunXr5/p1q2bZzsNHjzYrFmzxqSmppqrr77a3HfffSYnJ8dkZWV5+kVGRprw8HCzbt0643Q6zcaNG03//v1NZmamZ12MMebYsWOmUaNGnnJy+/btpnz58p7xunTpYt555x3jdDpNbGysadOmjafO6+ZyuTx16/z8fHPo0CHTq1cvT71+27Zt5uqrrzbJycnm0KFDpk6dOuajjz7ynLPuueceM27cOJOTk2Py8/PNmDFjTJs2bUxaWppZuHChadGihYmOjjbOwnNYr169TGZmplm4cKGpV6+eOXz4cLHlcS/TbbfdZhYvXmycTqc5fvy4adasmdm4caNJSUkxHTt2NGvXrjVOp9NERUWZTp06mQ0bNpizZ8+apk2bmhUrVhin02ny8/PN8OHDzeeff26cTqeJi4szbdq08dRlBwwY4JlOdHS0adeunVm/fr3JyMgwN954oxk5cqTJysoyBQUFZtSoUWbp0qUmJibGtGnTxnz//ffGWXit1adPH5OSklJsHfDXyc3Nu6A8/DP//qj/2UjMFDb7++abbzRixAjPrRszZszQmDFj5HA4FBQUpG7dunmaUH3wwQcqXbq01qxZo+XLl8vPz0/x8fGKjIxUz5499corrygyMlLffPONpxmW++FMlmV5/koqX768unfvLofDofLlyys4OFjp6enas2ePatas6elXp04d9ezZs+ToHn379lXlypUlSdu3b5e3t7d27typZcuW6dixY/Ly8tLBgwcVGBjoaQERGxur6dOna+zYsZ4EdMyYMapRo4YcDoe6d+8uHx8fHT9+XBs3btTNN9+spk2byuFwqEWLFqpYsaLneRh+fn5q166dLMtSlSpVFBAQoOTkZAUGBsrlcun7779XZGSk7r77bk+LELegoCANHTpUGzdulDFGW7duVZUqVdSsWTN99tlnCg0N1ebNm7V8+XLl5+crLS1NR44c8YxvjNH27dvVqVMndezYUZZlqWbNmnrllVfk6+urnj176tNPP1VeXp6+++477dy5U6dPn1Z+/vlf06tWraoWLVrIsiydPn1aaWlpuvfeez2/SA8ePFgqbL64aNEiTZkyRVOmTNGTTz55wfNATInGVMYYpaamavLkyapataqmTZsmh8OhvXv3Kj4+XqdPn9ayZcu0Z88eVatWTTt27LhgGkUNGjRIs2fPVkREhFasWOG5pSk/P199+/bV+vXrlZ6erjNnzuinn35Sr169tHfvXgUHB6tz585yOByqXLmybr75Zu3cuVMqscwl513y2A0JCdHJkye1atUqJSUl6cUXX9SwYcOKjQNI0tatW9WnTx+1bdtWDodDdevWVb169fTTTz95hrlYmajC8iQ7O1tLly5VZGSkHnjgAc2ePdvTMmvw4MGqX7++HA6HWrdurfr16+vw4cNq1qyZFi9eLIfDoR9++EHr169XfHy8cnNz9csvv2jIkCFq2bKlHA6HmjVrpjlz5kiSNm7cqA4dOmjdunVatmyZ8vPztWPHDkVHR5dYMqlZs2YaOnSoLMtSxYoVNXLkSO3evdvTVLtUqVJavny5vvnmG5UrV87T/Lvod8myLLVp00Y///yz4uPjtWHDBrVq1Ur+/v46fPiwTpw4obNnz6ply5b66KOPVLp0aa1fv17Lly+Xl5eXEhMTdeLECX3xxRcKDAzUjz/+qGXLlsnpdHpu05Gkdu3aqWrVqp75qfCWwSthWZZiY2O1YcMGGWO0fPlyrVmzRu3atdOWLVs857du3brJ29tbwcHB6tKli1q0aCGHw6EyZcqoadOmiomJ8bRoWb16tQ4dOqRevXrp22+/VenSpUvOFsAVKnl+3rdvn6e1rWVZqlSpksaMGaOdO3decG6XpBYtWig4OFiBgYGqXbu2+vXrp6CgIPn4+KhOnTq/+VlO7uUouVxupUqV0j333CMfHx+VKlVKQ4cO1RdffOGpi7lt27ZNpUqV0vbt27Vs2TJFREQoNze3WL1PkjZs2KDAwEBdffXVcjgcCg8P12effabw8HCtWLFCHTt2VMOGDeVwODz1w1+rY11MixYtFBIS4tlOAwYMUHBwsHx8fFS3bl2dO3fOM+zw4cM9t2DUqFFD8fHx8vHxUUhIiFavXq39+/erefPmevPNNz0tNVRY91q5cqXCw8OL1bOHDRvm2X8VK1b07NuKFSuqTp06v/rck1q1aunDDz+Uv7+/fvrpJ61evVppaWnKyMiQCq9B3NsvOztbJ06c0EMPPSRfX195eXnppptuUmhoqHJzc7V69Wo1bNhQP//8s+d8s3v3bp08eVLGGNWvX1/VqlW7YL9LUunSpbVu3Tpt2bJF5cuX14oVK9SkSRPt3LlTFStWVPv27WVZlq666iq9/fbbqlWrliSpRo0a6tGjhyzLUlRUlI4fP66UlBQtW7ZMGzZsUN26dbV161adOHFCCQkJiomJ0bJly/TLL78oLCxM27dv9yzDLbfc4rklvG7dukpISJC3t7dn3+zevVu1atXSO++8o4ASjyOAff3PhiEqvP0gPT1dwcHBUmHhXaFCBbVt21behc3B3YV5QeEzMVavXq1JkyZp4sSJeuGFF1SqVCmZwudbXH/99WratKlee+01mcJniDiv4OFFDofDE0QUPXm4nw3iDg0syyp2+0RJRQufpKQkbd26VRMnTtSECRM0adIkzzNQunbtqsmTJ2vatGmqW7euGjVqpJMnT3rGrVChguff7nsjY2NjlZKSovLly3vm4+fnp9KlSyszM9MzvKPwvj33MJZlqUmTJvrkk0+0aNEiNW7cWC1bttSpU6c86+zWq1cv7d69W+np6frpp580btw4BQUF6dy5c/r555/1+OOPa+LEiZo1a5ZCQ0PlKnF/WUpKikqVKuWZrre3t1q2bKmyZcsqJSVFo0aNUqNGjTRr1iylp6crOzvbcwJ2L7cKt7v7RO3uV758ealwfWrUqKGmTZt6/sqVK+dZhpKMMcrNzdXDDz+slStXKjk5Wb6F96QmJSXp6NGjeuqppzRx4kRNnDhRJ06c8Bx7l5KQkKCBAweqZcuWnnv7s7Oz5XK51LhxY2VmZuqXX37R+vXrFRYWpoYNGyoxMdFzYnOrWLHiBRWQX2NZlkaNGqWxY8dq/Pjxqlmzpnr37q3ExMSSgwJKSUlR6dKli30ny5Yt+6tvFnB/z1544QW99tpraty4sWrXrq3du3d7plWmTJli5UxISIji4uKUlZWlhx56SHXr1tWUKVOUkpKivLw85eXlKSUlRWXLlvVMw9fXV+3atVNISIjS0tL02Wefeb6L8+fPl7+//wXBgWVZnosFd1lXvnx5nTt3Tjk5OYqOjtb06dM901mzZk2x8d0sy/I8R2j37t367rvvNGzYMLVt21bfffedNm/erI4dO6py5cqKj4/X2rVrPeee2bNnKyQkRC6XyxN6uvtNnz5dDofDU9kvuo2Kls1XKiMjQ9HR0Zo7d64mTJigiRMn6ttvv1VQUNAF85Ck4ODgYudP97YODQ3Vhx9+qH379ql169aqUaOGVq1a9avlHYArl5SUJG9vb0/5JEmVKlW65LneXSY4HA75+fl5nqHg7vdnCwwM9NSt3GXnmTNnLnirS3Jysn7++WdPmTNp0iSlpqaqoMTDpxMSEhQUFOSpV3l5eXnKl8TERIWEhHjKGD8/P1WpUkU5OTm/OQwpuk3c28mtaF22aJnn/ixJYWFh+uabbxQREaEuXbqoWrVqntsei4qNjS1WhjocDlWrVs1zC1DJMvxK9lFeXp6efPJJ1a5dW4888ogSEhLkdDqL/VjrXmaXy+V51oubOzwoKChQcnKyvvvuO8/57bXXXlOpUqU81zpF69IlPf300ypTpoz69++vypUra+LEiXK5XEpKSvLMwz1u48aNVbVqVanEOqempioiIkLPPvusZxl++eUX+fj4KCUlRYcPH9bkyZM9/fbu3VtsfxSdh/v/ZcqU0ZIlS5SYmKhevXopLCzMc0sQoP/1MKR8+fKqXr2652GgxhitW7dOb7zxxgUVYD8/P7Vp00Z33323jhw5ooiICG3btk3Tpk1TeHi4Xn31VbVt21YZGRn68ccf1bVr12Lj/56Ct3Hjxjp16pQ2b94sp9OpY8eOFftF9XLq1KmjIUOG6NixY4qIiNDx48f1+uuvq127dtq3b58CAgJ08OBBxcfHa+rUqZo7d65nnQ8dOuQJGpKTk5WVlaVatWqpVq1aOnjwoOek6n7AaFhYWLF5F2WM8bw+98cff1RycrKefvppz3Mo3CzLUvXq1eXv769vv/1WkZGR6tevn3x9fdWiRQvdcMMNOnTokCIiIrRz5049++yzat68ebF51axZs1hrnKysLM2bN0/R0dFavHixqlevrri4OG3cuFEjR44sVkAWVa5cOblcLkVEREiF9w8eOnRIKixIu3XrplGjRmnUqFEaMWKE6tWrV2IKxTkcDl133XXatm2bfHx8NHPmTOXl5Sk8PFydO3fW1q1bPfvo7bff1oABAy55MjHGaO7cuRo4cKDS09O1atUqtW7d2tM/NDRUAwYM0IIFC/Ttt9/qjjvuUHBwsOrWraucnBxlZWVJhSe8PXv2eO4zdblcnpNtfn5+sYBLhfN1/23evFm1atXSiRMnFB0drUGDBukf//jHbz7G8b+vVq1aOnnyZLHvZEREhKeScynGGJ08eVKJiYnaunWrEhMTNX/+fL344ouKiYmRJJ08edJTMc7NzdWZM2dUs2ZNrVy5Uip8Hfa2bdt03333eSo1tWrV0rFjxzxlXXJysl544QUlJiaqevXqmjhxoo4fP64TJ05o06ZNeuGFF1StWjXPcqlw2c6ePaukpCSp8Ltz4MAB1axZU2XKlFHjxo21du1anThxQidOnNCXX36phx56yPOdLhrili5dWsOHD9fSpUsVERGhnj176uqrr9bq1au1bt063XLLLQoMDFSrVq106623es49O3bs0PTp09WwYUN16tRJt956q44ePaqIiAjt3btXM2bMUP369S9ZjvwWYWFhat68uT755BNFRER4WqPcfffdFzw/6XLcrV/effddZWRkaNmyZXrmmWe0bdu2koMC+A2KnnvDw8OVn5+vjIwMzzl7x44dngDi97IKH5CpwjKsZB2hqMvVBdwPX1dhS9tDhw6pefPmF/zQV7t2bV1//fWe8vjYsWN67bXXPC143Ro2bKjk5GRP64js7GzNmjVLW7duVePGjT0P61Rheb9jxw6VLVv2grKx6PqZwhcr/JliY2O1evVqvfnmm0pKStJ3332nL774olhLF8uy1Lp1a8XHx3vmn1342vMyZcoUmdpvs3HjRs8DXXfv3q3HHnvskhf6AQEBqlmzphYsWKDs7Gzl5ORo2bJlSk1N9Tw/5O677/acbzZt2qQ5c+YoPDz8gm1alNPp1Jo1azRu3DglJSVp3759Sk1N1bJly1SnTh3PSyCMMXK5XHrzzTe1e/fukpNRtWrV1L59+2Ln2CVLlmjEiBGqWbOmunbtqp07d3r6LVy4UIMGDbrssiUlJelf//qXXnnlFSUkJOiXX37RunXrtG/fvssey7CPi18t/g+wLEvBwcF65JFH9Nxzz+nnn3/WunXrdO+998oYU6zpmnv4e+65R6tXr9aSJUt08OBB3X///frwww9lWZan2XJ8fLy+/vprzZ49W6mpqYqLi1NoaKgiIiL00Ucfae/evcWmeznNmjXTU089pVGjRql+/foaMWJEsYckXYplWWrevLliYmI0depUHT16VDNnztTMmTNVUPjWlvvvv9/zkKwjR454nsZsCl+T9vLLL+vAgQN69NFHVatWLdWsWVPXXHON1qxZo5kzZyoiIkKzZ89WuXLlLnvrjlX4dOdHHnlE7777rhISEnTy5EmVLVv2giZowcHB6t69u8aNG6fQ0FBVrFhRlmXppptu0vbt2/Xee+/p2LFjmjBhQrEHw7rn06FDB0VGRuqRRx7R0aNHNWfOHH399dcqV66cHA6Hzp07p7i4OK1fv16TJ0/2rHtJNWrUUJs2bfTAAw9oy5Yt+uyzz7Rw4cKSg10gOTlZa9as8YQKKlwuHx8fDRo0SJUqVdLUqVP1z3/+Uz/88INq166tsLAwTZ06VUeOHNFbb72l+++/X+np6cWmqyK3ASUVvtkoISFBcXFx+vzzz/X8888rKSlJCYVvgBk+fLinIB82bJgsy1J4eLjCwsI0fvx4HTp0SPPnz9dXX32lAQMGyMfHR6GhoXr11VcVFRWluXPn6tixY555V61aVZs2bdLSpUt1/PhxRURE6KabbtJ3332n+Ph4nTp1SqGhoYqKilKPHj20b9++YssOe7IsS127dtWhQ4c0efJkHTt2TC+++KJyc3MvG/ipyC9VkydP1oIFCxQTE6OjR4/Kx8dHfn5+MoXNiadMmaKDBw9q7NixysvLU+PGjeXl5aWkpCTFx8dry5YtuvvuuxUdHa0DBw6oV69e2rlzp5566ikdP35cs2fP1oYNG1SxYkUNGTJEs2fP1qJFi3TixAmNHz9eq1atuuBcIElnzpzRHXfcod27d2vu3Ln6+uuv1bNnT4WGhqpp06YaNWqUtm7dqh9++EF33nmnpwn1VVdd5fkunThxQpZl6YYbbtDKlSsVFham2rVrq127doqPj9ehQ4c8TYPvuOMOrVu3TgsXLtThw4f14IMP6r333pPD4dCwYcP0yy+/6P3339fhw4c1duxYvfnmm7+7EmdZlkqXLq2PP/5YP/zwg5xOp4YNG6bp06drx44d+u677zR48GAdP378svuwJD8/P73++uuaNWuWzp49q1OnTim/8Kn9Y8eO1T333POnX4AA/+t8fX2VlpamDz74QFu2bFH16tUVHh6uhx9+WIcPH9Zbb72ljz/++A89qDgwMFB16tTRO++8o5MnT+qLL7644NXbhw4dUmRkpEJCQhQZGanFixdr9+7dF7TgzcrK0n333aetW7fqyy+/1JIlSzR+/Hh5F76l5tChQzpz5ozatGmjQ4cOacaMGTp27Jieeuopvfzyy8WmJUkdO3ZUrVq1NHXqVEVGRurNN9/UW2+9pYoVK+qGG25QZGSk5syZo5MnT2ratGlyuVzq3bu3LMvyhO2WZal+/fr6+OOPdfDgQa1du1Y//PDD7y5DL2XOnDl64okndOrUKZ0+fVrOwrdLFtWvXz/l5+dr5syZOnHihJ599lkdP35c/fr1+8377+DBg4qKipLD4VBaWprOnTunnTt36qabbtLZs2d18ODBC9bR399fEyZM0Ntvv60mTZqocePGOnTokKc15KhRo/Thhx9q4cKFOn36tB555BEtX778ghYuJTkcDv3000964IEHtH//fp05c0bx8fEKDQ1V/fr1FRgYqIceekiHDx/WK6+8orfffltBhW92LMr9g4O71cenn36q0aNHKy4uTpUqVVK5cuU0btw4HThwQAsWLNADDzzwqy1RJemdd97RuHHjdPz4cUVGRionJ8dTL77++uuL1ethP//Tr9a1CpspBwQEaMGCBdq8ebNGjx6te+65R15eXjpz5owaNWrkeUuG+0v7ySefaNWqVapevbpeeukllSlTRs2bN9fWrVu1aNEixcTEaO7cucrKylLlypXVpEkTBQQE6JtvvpGPj4/atGmjyMhIz+04586dU/fu3eXn5ydn4au32rdvL6fTqYSEBI0fP159+vTRPffco+PHj6ts2bLq0aNHsXVxv/bK3VoiMDBQbdq00ddff61vv/1WycnJevbZZ1WvXj1VrVpVpUqV0tKlS/X999/Lsiw99dRTqlChgjZs2KA2bdooOjpay5cvV8WKFTVt2jSVKVNG5cqV0zXXXKOVK1dq2bJlCggI0KxZs1ShQgXl5+d7WnOUKlVKBQUFioyMVPfu3dWwYUM1bdpUy5cv14oVK5Sfn6833nhDVapUUVxcnCpWrKhmzZrJsiyFhYXp5MmTngDIKmz+3qpVK3355Zf6+uuvVbZsWc2fP99z64pbqVKl1Lt3b61fv17Lli1TRkaGZs6cqSpVqqhOnTrat2+fPv/8c+3evVtPPfWUAgMD5XQ6FR4ertTUVPXr108+Pj7y9vZWjx49dObMGS1btkxnzpzRgw8+6HmGTMlE3SoMPNLS0rRhwwb16tVLWVlZCgoKUsuWLRUXF6c6deqoWrVqKleunJo2baqdO3eqU6dO6tChg+fiKCoqSs8884w6dOhQ7KTn7e2tChUqaPv27WrRooV69OihDRs26OOPP1ZycrLeeecdxcbGqmbNmqpatapCQ0N19OhRVatWTSNGjJBV2MSwffv22r59u5YuXaqzZ8/q2WefVfv27eXt7a1GjRpp1apV+uqrrzzPpmnYsKHKlSvn+WV8zZo1CgsL07Bhw+RyubR8+XKtXr1aVatW1aOPPiofHx8dOnRI3bp1U9myZYtsIfzV/q6v1g0NDVW/fv20Zs0az3M43N9JSYqOjva8drpkRS80NFTVqlXTF198oZUrVyo1NVUzZsxQ7dq1dfDgQc8thF988YVcLpeee+451ahRQ9WrV9fp06e1ePFibdu2zfOsnoSEBPXr10/9+/fXDz/8oC+//FLe3t6aOXOmKlSooFq1aqlly5b69NNPPfdtT5kyxXMbpVtB4SsRa9asqUWLFikqKkpTpkxR586d5e3trY4dOyomJkZLly7Vtm3bdOutt2rIkCHy9vZWjRo1VFBQoLVr16pKlSqqV6+eypQpo7i4OA0ePFiNGjVSQECAsrOz1aBBA/Xp00eWZSk0NFRNmjTRZ599ppUrV6py5cp65ZVXVK5cOQUHB6thw4b65JNP9N1336lMmTJ6/vnnValSJWVlZSk3N1dt27aVVeR2z06dOhVr1eFyuXTq1Cl169ZN5cuXV40aNbRjxw7t2bNHrVq1Uq9evZSUlKTFixdr586duvfee3XzzTfL29tbCQkJKlu2rOeWn/j4eIWFhalBgwYyxujMmTOqV6+emjRpoo4dO+qHH37Q0qVLdfLkSb3wwgtq3769jhw5otDQUHXs2PFXK9XAf8JfXX/V76jDqjBkrFSpklasWKH09HR16dJFnTt31p49e/T5558rMjJSzzzzjOd5YW5W4fOAypcvr+bNm3s+V69e3dPaNSYmRuHh4apevbratGmjbdu2aenSpXK5XBowYICaNm2q8uXLq1q1atq2bZvnFuLAwEB9/fXXcjgcatu2rc6ePatmzZrJ5XJp9erVuu2227Ro0SLt379fY8eO9YQT1atX15YtW1SrVi01a9ZMbdq00YoVK/Ttt98qPT1dM2bMUI0aNYqdK3x8fDRgwADt3LlTixYtUkpKil5//XU1atRIwcHB6tGjh1atWqWlS5cqMDDQ88bCwMBApaam6ujRo+rRo4dat26t06dP69NPP9WpU6d04403qk6dOqpRo4bi4uJUtmxZtWzZ0rOdqlWrpnr16nk+16xZU1WqVNGZM2fUtm1bT4vpmJgY1a5dWw0bNlSPHj20Zs0affXVVzp69KgefvhhtWrVqtj6+Pr6qlu3blq7dq2++OILGWP0xhtvqE6dOrIsS5GRkWrTpo0nRDlz5owaN26sKlWqeKZjFT53Y+vWrapZs6Y6duyopKQkvf/++9q0aZMmTpyoRo0aKTY2Vq1bt9a5c+fUo0cP+fv7yxijqKgo3X333RowYIBGjx6txo0ba9euXZ7WF+3atdOnn36qFStWqFatWpo1a5aCg4OVkpIiy7LUqVOni9aTW7Roob1792r58uXasmWLBg0apJtvvln+/v7q2LGjfv75Zy1fvlzx8fF67rnn1LRpUzmdTsXHx6tTp06eW7/atm2rgwcP6vPPP9fBgwf1yCOPqH///vLx8VHHjh09zxc8fvy4Hn/8cXXu3FmSdPbsWTVt2lSVKlWSZVmKi4tTlSpV1KRJE3Xt2lUbNmzQ119/rb179+ruu+9Wp06dPKFVjx49ODf9hXi17p/oj7w6x93c+koOdqfTKZfLJW9v72KFmKvwXjtvb+9L3oLxWyQnJ+umm26St7e3OnfurJMnT2rDhg36/PPP1bhx45KDX5QxRgUFBfLy8rpgmUquhzFGM2fOVPny5XXvvffK6XResI4qsp5F70m9Ek6n0zPNkstyJVwu1yWXqahLrfOlul/Kbx3+9/o987nUsRYXF6dPPvlES5Ys0eOPP65rr7222La63Lzc2/div4RfTEFBgYwxv7o/8Nf7u75a1819bF3suPs17nLDXd6YwlcP7t69W7NmzbpomeA+zh0OxwWVMv3K8pQsFy+noKBAVmHLwJJ+yznlSl2uDLxcvz9LfuHriP/IOrnLLi8vr4tuN+Dv6K+uv+oP1mFLuty5/vf6rXWEko4ePaoxY8boyy+/9Pxg8mtliXs9fq1cM8YoPz//ouXKpepLJV3pvP6IXzs3ubnX59eW+Upd6XydTqfeffddzZs3TzfeeKMsy9KKFSs0ZsyYYi9aKHlevlLu5bjYeeS3HrP5+fmXXJ/L9buUyy0b/lp/91fr/k+3DCnKUeQhpr/G/QUrWQC4K8Ulu/9eAQEBGj58uGJiYvT9998rJCREc+fOveIgRL+yTBdbj3PnziksLEx169a9oJ/b5aZ5OReb329xpfO91HCX6n4pv3X43+v3zOdS48THx2vlypUaPny4hg0bdkGBfqnxiva7Un90f+LP83dtGeJ2uePu11zsOEtNTZWvr6+aNWt2QT8Vmd+lyvTLLc/F5ncplztvXK7f73W55b5cvz/L5bbplfq1fQP8Hf3V9Vf9wTpsSX9FeeCe5u+Vm5ur+Ph49ejRQwEBAVdUBlzpelyuXPmt0/i14f6Iyy1nUX/2slzpfB0Oh1q2bKk6derom2++UWRkpMaOHavRo0cXq0/+lvNkUZdbjt+6zpeajn6l36Vcbtnw16JlyJ/ojyY/f0clN/+VFhK/lzHmL58H/jpFjxf2o3383VuG/NncxznHOIB/h7+6/qr/0TpsSdQx/zv8u689YG9/95YhxGP/YVaR1yH+Owqjf8c88Nf5dx4rwH8KxzgA/Peh3P7v8O++9gD+zghDAAAAAACArRCGAAAAAAAAWyEMAQAAAAAAtkIYAgAAAAAAbIUwBAAAAAAA2AphCAAAAAAAsBXCEAAAAAAAYCuEIQAAAAAAwFYIQwAAAAAAgK0QhgAAAAAAAFshDAEAAAAAALZCGAIAAAAAAGyFMAQAAAAAANgKYQgAAAAAALAVwhAAAAAAAGArhCEAAAAAAMBWCEMAAAAAAICtEIYAAAAAAABbIQwBAAAAAAC2QhgCAAAAAABshTAEAAAAAADYCmEIAAAAAACwFcIQAAAAAABgK4QhAAAAAADAVghDAAAAAACArRCGAAAAAAAAWyEMAQAAAAAAtkIYAgAAAAAAbIUwBAAAAAAA2AphCAAAAAAAsBXCEAAAAAAAYCuEIQAAAAAAwFYIQwAAAAAAgK0QhgAAAAAAAFshDAEAAAAAALZCGAIAAAAAAGyFMAQAAAAAANgKYQgAAAAAALAVwhAAAAAAAGArhCEAAAAAAMBWCEMAAAAAAICtEIYAAAAAAABbIQwBAAAAAAC2QhgCAAAAAABshTAEAAAAAADYCmEIAAAAAACwFcIQAAAAAABgK4QhAAAAAADAVghDAAAAAACArRCGAAAAAAAAWyEMAQAAAAAAtkIYAgAAAAAAbIUwBAAAAAAA2AphCAAAAAAAsBXCEAAAAAAAYCuEIQAAAAAAwFYIQwAAAAAAgK0QhgAAAAAAAFshDAEAAAAAALZCGAIAAAAAAGyFMAQAAAAAANgKYQgAAAAAALAVwhAAAAAAAGArhCEAAAAAAMBWCEMAAAAAAICtEIYAAAAAAABbIQwBAAAAAAC2QhgCAAAAAABshTAEAAAAAADYCmEIAAAAAACwFcIQAAAAAABgK4QhAAAAAADAVghDAAAAAACArRCGAAAAAAAAWyEMAQAAAAAAtkIYAgAAAAAAbIUwBAAAAAAA2AphCAAAAAAAsBXCEAAAAAAAYCuEIQAAAAAAwFYIQwAAAAAAgK0QhgAAAAAAAFshDAEAAAAAALZCGAIAAAAAAGyFMAQAAAAAANgKYQgAAAAAALAVwhAAAAAAAGArhCEAAAAAAMBWCEMAAAAAAICtEIYAAAAAAABbIQwBAAAAAAC2QhgCAAAAAABshTAEAAAAAADYCmEIAAAAAACwFcIQAAAAAABgK4QhAAAAAADAVghDAAAAAACArRCGAAAAAAAAWyEMAQAAAAAAtkIYAgAAAAAAbIUwBAAAAAAA2AphCAAAAAAAsBXCEAAAAAAAYCuEIQAAAAAAwFYIQwAAAAAAgK0QhgAAAAAAAFshDAEAAAAAALZCGAIAAAAAAGyFMAQAAAAAANgKYQgAAAAAALAVwhAAAAAAAGArhCEAAAAAAMBWCEMAAAAAAICtEIYAAAAAAABbIQwBAAAAAAC2QhgCAAAAAABshTAEAAAAAADYCmEIAAAAAACwFcIQAAAAAABgK4QhAAAAAADAVghDAAAAAACArRCGAAAAAAAAWyEMAQAAAAAAtkIYAgAAAAAAbIUwBAAAAAAA2AphCAAAAAAAsBXCEAAAAAAAYCuEIQAAAAAAwFYIQwAAAAAAgK0QhgAAAAAAAFshDAEAAAAAALZCGAIAAAAAAGyFMAQAAAAAANgKYQgAAAAAALAVwhAAAAAAAGArhCEAAAAAAMBWCEMAAAAAAICtEIYAAAAAAABbIQwBAAAAAAC2QhgCAAAAAABshTAEAAAAAADYCmEIAAAAAACwFcIQAAAAAABgK4QhAAAAAADAVghDAAAAAACArRCGAAAAAAAAWyEMAQAAAAAAtkIYAgAAAAAAbIUwBAAAAAAA2AphCAAAAAAAsBXCEAAAAAAAYCuEIQAAAAAAwFYIQwAAAAAAgK0QhgAAAAAAAFshDAEAAAAAALZCGAIAAAAAAGyFMAQAAAAAANgKYQgAAAAAALAVwhAAAAAAAGArhCEAAAAAAMBWCEMAAAAAAICtEIYAAAAAAABbIQwBAAAAAAC2QhgCAAAAAABshTAEAAAAAADYCmEIAAAAAACwFcIQAAAAAABgK4QhAAAAAADAVghDAAAAAACArRCGAAAAAAAAWyEMAQAAAAAAtkIYAgAAAAAAbIUwBAAAAAAA2AphCAAAAAAAsBXCEAAAAAAAYCuEIQAAAAAAwFYIQwAAAAAAgK0QhgAAAAAAAFshDAEAAAAAALZCGAIAAAAAAGyFMAQAAAAAANgKYQgAAAAAALAVwhAAAAAAAGArhCEAAAAAAMBWCEMAAAAAAICtEIYAAAAAAABbIQwBAAAAAAC2QhgCAAAAAABshTAEAAAAAADYCmEIAAAAAACwFcIQAAAAAABgK4QhAAAAAADAVghDAAAAAACArRCGAAAAAAAAWyEMAQAAAAAAtkIYAgAAAAAAbIUwBAAAAAAA2AphCAAAAAAAsBXCEAAAAAAAYCuEIQAAAAAAwFYIQwAAAAAAgK0QhgAAAAAAAFshDAEAAAAAALZCGAIAAAAAAGyFMAQAAAAAANgKYQgAAAAAALAVwhAAAAAAAGArhCEAAAAAAMBWCEMAAAAAAICtEIYAAAAAAABbIQwBAAAAAAC2QhgCAAAAAABshTAEAAAAAADYCmEIAAAAAACwFcIQAAAAAABgK4QhAAAAAADAVghDAAAAAACArRCGAAAAAAAAWyEMAQAAAAAAtkIYAgAAAAAAbIUwBAAAAAAA2AphCAAAAAAAsBXCEAAAAAAAYCuEIQAAAAAAwFYIQwAAAAAAgK0QhgAAAAAAAFshDAEAAAAAALZCGAIAAAAAAGyFMAQAAAAAANgKYQgAAAAAALAVwhAAAAAAAGArhCEAAAAAAMBWCEMAAAAAAICtEIYAAAAAAABbIQwBAAAAAAC2QhgCAAAAAABshTAEAAAAAADYCmEIAAAAAACwFcIQAAAAAABgK4QhAAAAAADAVghDAAAAAACArRCGAAAAAAAAWyEMAQAAAAAAtkIYAgAAAAAAbIUwBAAAAAAA2AphCAAAAAAAsBXCEAAAAAAAYCuEIQAAAAAAwFYIQwAAAAAAgK0QhgAAAAAAAFshDAEAAAAAALZCGAIAAAAAAGyFMAQAAAAAANgKYQgAAAAAALAVwhAAAAAAAGArhCEAAAAAAMBWCEMAAAAAAICtEIYAAAAAAABbIQwBAAAAAAC2QhgCAAAAAABshTAEAAAAAADYCmEIAAAAAACwFcIQAAAAAABgK4QhAAAAAADAVghDAAAAAACArRCGAAAAAAAAWyEMAQAAAAAAtkIYAgAAAAAAbIUwBAAAAAAA2AphCAAAAAAAsBXCEAAAAAAAYCuEIQAAAAAAwFYIQwAAAAAAgK0QhgAAAAAAAFshDAEAAAAAALZCGAIAAAAAAGyFMAQAAAAAANgKYQgAAAAAALAVwhAAAAAAAGArhCEAAAAAAMBWCEMAAAAAAICtEIYAAAAAAABbIQwBAAAAAAC2QhgCAAAAAABshTAEAAAAAADYCmEIAAAAAACwFcIQAAAAAABgK4QhAAAAAADAVghDAAAAAACArRCGAAAAAAAAWyEMAQAAAAAAtkIYAgAAAAAAbIUwBAAAAAAA2AphCAAAAAAAsBXCEAAAAAAAYCuEIQAAAAAAwFYIQwAAAAAAgK0QhgAAAAAAAFshDAEAAAAAALZCGAIAAAAAAGyFMAQAAAAAANgKYQgAAAAAALAVwhAAAAAAAGArhCEAAAAAAMBWCEMAAAAAAICtEIYAAAAAAABbIQwBAAAAAAC2QhgCAAAAAABshTAEAAAAAADYCmEIAAAAAACwFcIQAAAAAABgK4QhAAAAAADAVghDAAAAAACArRCGAAAAAAAAWyEMAQAAAAAAtkIYAgAAAAAAbIUwBAAAAAAA2AphCAAAAAAAsBXCEAAAAAAAYCuEIQAAAAAAwFYIQwAAAAAAgK0QhgAAAAAAAFshDAEAAAAAALZCGAIAAAAAAGyFMAQAAAAAANgKYQgAAAAAALAVwhAAAAAAAGArhCEAAAAAAMBWCEMAAAAAAICtEIYAAAAAAABbIQwBAAAAAAC2QhgCAAAAAABshTAEAAAAAADYCmEIAAAAAACwFcIQAAAAAABgK4QhAAAAAADAVghDAAAAAACArRCGAAAAAAAAW7GMMaZkx98rIzO7ZKc/lbe3V8lOAPA/z+UycrlcJTv/qRwOhxwOq2RnAPifV1DgLNnpT0cdFoAduVwuuVx/WtxwgeCggJKdfpP/qjAEAAAAAADgj4Yh3CYDAAAAAABshTAEAAAAAADYCmEIAAAAAACwFcIQAAAAAABgK4QhAAAAAADAVghDAAAAAACArRCGAAAAAAAAWyEMAQAAAAAAtkIYAgAAAAAAbIUwBAAAAAAA2AphCAAAAAAAsBXCEAAAAAAAYCuEIQAAAAAAwFYIQwAAAAAAgK0QhgAAAAAAAFshDAEAAAAAALZCGAIAAAAAAGyFMAQAAAAAANgKYQgAAAAAALAVwhAAAAAAAGArhCEAAAAAAMBWCEMAAAAAAICtEIYAAAAAAABbsYwxpmTH36v91GtLdgIAAAAAAPhTbXluWclOv8mfGoaE3dO2ZCcAAAAAAIA/Vdw720p2+k24TQYAAAAAANgKYQgAAAAAALAVwhAAAAAAAGArhCEAAAAAAMBWCEMAAAAAAICtEIYAAAAAAABbIQwBAAAAAAC2QhgCAAAAAABshTAEAAAAAADYCmEIAAAAAACwFcIQAAAAAABgK4QhAAAAAADAVghDAAAAAACArRCGAAAAAAAAW/lbhCGWJMuy/v+v5AAXYenywxftfzGXm1+xfpalC4c474LlLjHsxce6cn90/CtRbDteYlv9Hn/elIr7tf1+KVbhuCWV7HKxYS7lSoe9sqHs5Uq3HQAAAPB3cqlrv0u5kmH+0y56XfsnXx/+HVnGGFOy4+8Vdk/bkp1+lY+Xt1rUbKTmNRrKz8dPLpdTZ5JitfbAJmXkZJUcXJIU5Beo/i26qVLpCpKkpIwUrTmwSXEpCZKksNDyurppJ5UJCpXL5dLh6AitO7hZrsJVLRtcWn2bdVW5UqVljBSfmqA1BzYpKSNFV5WtpD7NusrHy9szv5z8XH2/Z73iUs9PX4UHS4e6LdSkWv1iB7jT5dT6w9vkdDrVpUEbrd67QbEp5zz9f4s24c1UrVxlfbtzjfIK8kv2/sPKlSqjgS16KMDXX5KU7yxQTHK8Nh/fpZTMtJKDX7Hz27CLtp3Yq/1RR0v2/t3Klyqr3s06q1xwaclIsSnntObgJiVnpJYc9AKtazVRi5qNdCQmQhsPb5cKC6ZO9VupYkh5/WvfBmXn5er6DgO0+dhunT53puQkirEsSyM7Ddahs8e1+9TBkr09LFnq06yLHA6HfjqwWTn5uSUHsZ0AX39d07KnTsRHatfJAyV7AwAAAH87/j5+6t20s6qUCfN0S8/J0K6TB3Q4OqLYsG6tazdR3Uq1tGL7v5Sdl1Oy999CSECw+rXopjKBoSV7KTUrXd/sXKPM3Itfl/+nxb2zrWSn3+Q/GoY4LIfu63OzxvYbrdyCPB2IOqoKpcqqTqUa2hd1VI8unKmT8VGe4c8nVg69dsfT6te8m47HnFJOQa6a1Wio73ev16SPZis0MERzb3tKzWo00N7Th1WpdAWVDS6t55a9oSUbV8jhcOi9e59X1wZtdfjscVmWpYZV6+qTX77WtM9eVZ9mXfTGmGfkMkbGGBlJKZlpuv+9qdpZ5MLNYVmaNny8but+nfKdBZIkIymvIE9PfjpHLpdLs0dN0p1vP64tx3Z7xrtSlmXp8aH3qkfDDrrh1bFKz8ksOcgfYslS42r1tPihV1XKP0hOl1OWZcnb4aWdJ/frvvee1Lm0pJKjXZFuDdvqn/e+oNkr3tL7az8r2fs3c+/3Bfe/qE71W+vQ2eNyWA41rFpHH21crqc/e1WXO4gty9L7972g3s26aPuJfbpuzn0yxsiyLM0c8Zha126qMW9OUkJ6kn56+hM9u/Q1rdq9ruRkirEsS5tmLNWiDcv1xvcLS/b2OD/vF+Xj7aOHFjxdLLixZKlFzUaaeu1Yjf/wWZ1Nii027v+q8qXK6rOHX9c3O3/UK9++X7I3AAAA8LdTJjhU79w9S23Cmyq/4Pz1n5fDS5m5WXpiyQv6bvc6lby0njD4bl3Xrr8Gv3CnEjNSivX7u6hevorevvs51Q6rIS/LUoCvv7Lzc+VyuRQRH6Vb33hU8amJJUf7W/ijYYjX9OnTp5fs+Hu9/PW7JTtdkmVZGtiihx65ZoxW7VmvFdv/JW8vLx0+e0Kbj+1Wx3qtVK9yLX2/Z72cLpdnnP7Nu+u+Pjfrje8X6uEPZ+izzd+qbFBpdanfWiu2/0vdG7XX4NZX67FFs/TCirf08c9fKzysukZ0HKS1Bzapd5POGtVpkJ778g1N/WSOPvnlG9UoX1VtajfTkp9XqHXtJupYt5Vu+8djmvrJHM3/fqH+ueYTRSfHl1h+h3o0bi9fH191nna95q9aqDe+X6i3/rVYR6MjVK9ybfVt1kVfbf9BZ5Pi5Ovtq6bV66tN7aa6qlxlZeflKDMnW81rNFR4WHUlpCfL6XSqYkg5tavTXC5j1LxGA9WuWF37zxxT8xoNdVW5ykrLzlB2Xo4sScH+gWpVq7Fa1GykauUqKyMnU9m5OWpdq4muKldJMSnnl7lS6QpqVauJsvNzlJmb7dmWFUPLaUjrPpr88Qsa/8GzeutfH+nQ2ePq36KHWtZsrB/2bVSBy6kqZSqqXZ3manxVXQX4+utcWpKMzocJDavWUds6zVSvck1ZlqWkzFSlZKZp24l92nFyn1Kz0hXkF6DWtc+3zCgbXFplgkNVtUwlxacmqOFVdVWpdAVVL1dFrWo1UZngUCVlpKigMGByL+vIjoN1Q8eBmvHFa3rq01f08S9fq3bF6mpTq4kWbljmGbYkS5aa12yocQNu14Goo6pTuab2nj6kyIRoWZal3k07q2rZsPNpbW6OxvS8QesObtXx2FPFplG/Sm1VK1dZV5WtpGrlqiguNUH7Io9o18n9Ss1Kl7+Pn1rVbqIWNRqpUpmKCg0spdoVqyk6KU7XtuurAB9/xaacU8OqdVQqIFixKedUNjhUfZp1Vf8W3XQ2KVahgSFKykhR5dIV1b5OCzW6qq6C/AIVn5qo87Hc/y9PzQpXKbxSdVUIKavwsOo6mxQnf18/NaveQK1qNVb18lWUk5erzJwsWZalKmXD1KFuSzWqWldlgkOVkJ50PgCTpSplwtS+bgs1qFpHIYHBSkxPlssY1atcS9XKV1HlMhVVs0JV+Xr7qtFVdXSmSGhTv3JtNagaroT0JJXyD1K7Os3VtHp9VQgpq5SsNOUV5MuSpcplKqpD3RZqUDVcIQHBurpJJx2NPanNR3d5pgUAAAD8XQX6+mtomz7aH3VMA2bfrvmrFurrnT/q6iadVatCNa09sEktajZScECQGl9VT74+PtoZcUDbT+xVfFqi2oQ3lWVZSs1KlyT5+fiqU/1WMkayLKlteHM1q95QlctUVEZ2pnLyzrco93J4qfFV9dQmvKnCK9WQJUt5BXlqG95cPt7eSsk636Lfy+FQp3qt5OXw8nS7EqlZ6Vry81d64/tFOhZ7Sn2bddVD7z+tRxfO1EcbVigzN1vNqjdQ69pNVaNCVeXk5yojN0ul/IPUsW4rBQcEqdFVdeTj8Fa5kLKqW6mmKpWuoDa1mqpUQLDiUxPVoW5LtajRUIF+AUrKSJXT5VRoYIjahTdT8xoNVa3wOte9zldq4uB7Snb6Tf4jYYglqVypspo9apIiE6KVnpOpm7oM1e5TB9W6dhM1vqqe3vh+kYa36689kYd1JjGmcDxLKVlpOh57Wj/s26j07AxJUpvwpmpSvb4+2/St7uk9SqlZaXr563fkMkZOl1OS0fUdB2pf5BFtOLxNR2JP6of9P58PFSxLneu3VnhYdS1av0z9mndTrYrVdDQmQjd1Hqpq5Srr1LkzF9zeYFmWejRqr6plKumjjSskY3T+P0mWpXqVa6lP0y5asf0HRSfH6o6eN2rmiMfUt1lXXdOqp3o27qidp/arZoWr9OyNjyo+LVGnzp3RuAG366F+t2vjke2qVbGautRvo4Ete6pfi+4a3Lq3Glato83HdslpXHps0F166rqH1LtpFw1p01stazXWhkNb1b5uSz153YM6GR+lmJR4PX/T4xrUupeWbf1eWSXCkGFt++inA5t1JCZCTpdLEXGRkqTrOwzQ1uO7Vco/SG+MmaGbOg9VjyYdNbj11XK6CrTr1EH1aNRB825/WkNa91bfpl3Uv0V3RSXFyGE59Nbdz+lcWqL2nD6kycPu1+RrH1Cfpl00qHUv9WzcUY2uqqOvdvyoxwbdpdFdh2l4hwHq3qi9hrXtp4yczGK3nliylJCerKMx5/dbTmEY1LVhG9WseJU+WLfUM2xJlmWpX/Nu6tm4gz5ct1QtazZSSma6thzfJSPp6iadVKXM+TAkKzdHd/S4XusObikWhjgsSw/2v00P9r9VN3UeouY1GmjZtn9pfmELov1njuqRa8Zo2vBxhfviavVv3k2d6rXSRxuXa2jbvmpeo4G6NGirbg3b6tq2/TwhxbTh41QhtJw61mup1rWbKiY5XjNHPqZRnQare+MOGtKmt5zOgmKtkizL0s2dh+qxQXfrps5D1bFeKy35eYXG9LhRM0c8qr7Nu2lQ66vVvm5zbTuxV3kFBZp/xzO6++oR6tGog65t21e+Xj7aefKAKoaW0/wxz+i27sPVq3EnDWvXV7n5edoXeUT39r5J9/W5WaO7DlPLWk20L/KwZt80SQfPHtPZxDhZlqXZoyapS4M2+ungFs0Y8age6n+bejXuqGFt+6l8SFn9fHSHapSvqtdvn67be1yvHo07qH+L7iodVEo7T+7XJsIQAAAA/BcI8PXX4Na9lZ2XrW92/ChjpJSsNHWq10qVSpfXyl0/af6dz2h4u/4a0Xmw8gryFejnryeG3qcVO37QzBGPKTysun7c/4ssWbqmVS9Nv3681hz4ReMH3q5Hr7lLvZp01JDWfdSwari2HN+trNxsXdeun+be9pQGtuypgS17qFfjTjocfULj+t+m5jUanm+RIqMuDdpo9qhJ2nxsl84WXj//FkZG4ZWq65oWPfXtrrU6HndaxhiN6XmDZo2apD7NumhQ66vVsV4r/XxkhyqElNU798xS32ZddUuXocrIzVLz6g00fuAdurpJZ/Vq0lHXte2nauWr6P4+N6tn444a2qaPIhOjFZMcpyeG3qfHh95feO3QV3XCauing5uVW5BXctEu6Y+GIf+ZB6halqqVq6waFaroTFKMOtRtqS+3rNKLX72tB/45TRsObdWR6BNKz8lU5/qtPaMZGZ1LS9Kyrd8rOileZUuV0YiOg3Rr12u159Qhpedk6qqy51scuFyFv6QbKT4tSbl5uSpXqrRiU89pxbZ/KSUjVWGh5XVHjxs0vF1/bTq6Uy7jUtUyYapaNkzjB96hJtXq6aEBt+mDB15WWGj5/19+D0vB/oHqVK+1OtU//9c2vFmRJ4ic/1fjavV0T++R+vjnr9R80gCNeXOSapSvqkGtrtb3ezfop4ObNa7/berTtLOuadVLH65fqs3Hzl8k+nr76M1/faQmE/rpsYUz1Ta8mQa27KEm1erp2rZ99d6aT9VkQj/d9Pp41ShfVff1uUnf71mnE7GnNXHw3Rrb91b1bNRB7/34iRLSkz1LdilG0onY0/J2eKl+ldq6r/fNCvYP1NCX71a7KUO1Zv8verDfbWpQJVzD2vZRfkG+Bj5/h3o8O0on4yN1c+ehCvTzl7+Pn7y9vNWxXisNa9NXb63+SE0n9tfY959WxZBy8vX2kVW4fhVDK+j+955UxyeHa+vxPRrapo+sIg/rMTKKSYnXiu3/UmpmuiqGltedvUZqWJu+2nR05wXN0YoK9gtU32ZddfjsSX259XvtPnVIneq3Vpng0iUHvQxLvt7eCvDx123/mKBBL96lrNxs+fn4ysfLWzUrXKXh7Qfoi80r1W7KUI2cN04ul0v+vn6F4xslZ6TpltcfVt/nbtXeyMO6pdu1OnjmmB764BmdTYrTgNl3qM/MW1S9fFVVLVtJt785Ue0mD9Wq3et0Q8drVKN81SJLI3l7ealMUKgmLJ6lq2fcrLDQ8rq127X6YN0Xajaxv25/Y4Kqlaui4e0HqFvDdqpfpbbueusJtZ48WJ9vXqmeTTqqcpmKenjgHQoJCNagF+5UmylD9NOBLbq5y1CFBpaSj7e3ygWX1r3vPqmBz9+hvZGHlZ2bo1GdhkiWVLVMmJpUr681B37R1U06qU14Uz34/jQ1nzRQL371lvo166b6lWvrunb9FF6phh58/2m1mHSNPvzpC/l5+3rWBwAAAPhvEeDrrzqVaqpelVq6pmVPtarVWBHxUcrMzVKQb4COx0Wq5eMD9fyKN+WwHPLz8VN+QYF2ROxTlwZtVTqwlBwOh4a06a2zyXFS4fXis0vnqdnEAZr2+atqXbupalespjLBpXVvn5u0P+qIOj11vTo9NVzn0hI1utu1+vnoDrWq1ViVy1SUpfMt6dOzM7Q/8shlHyHwWzStXl8P9BmtVbt/UudpN2jwC3eqbHAZjR9wuxyWl/x9/HTo7Am1fGKw5nz9nry9vBToF1B4jXKLTsRH6tq2ffXIwhnq/swIxSTHaVDLniobXFo9GnXQF5tXqtnEAXrw/adVO6y6OtRt+W994Ox/JgwpvJizZMllXHJYlgpcTlmSXC6XcvJzCx/qaS66MbwcDnVt2Fbv3/eiplz7gL7euUbTv5ir9OyLP1fD6SyQkZGXw0sqnPeAlj204IGXNK7/bfro56/00tfvyFn48Navd/yom19/RDe8OlYPf/CsKpUur4f631ZyspKk0MBSeuSaMXp44Bg9MnCM7r56VLGDz5LUqV5rlQkMVZ1KNTRjxKO6tl1fZeflqHXtJvLz9tFb//pImbnZmjlygvacOqj3135eOLZRVGKMlmxcIWOMVu1Zp2Oxp9SqVhP1adpFWbnZevuHJTLGaNfJA9oRsU8tajZSQnqyZi3/h0ICS+me3iO1ctdafb9nw2VDg6KcLpeMMaoQUk7NajSQMUZ3dL9e04aPU+XSFVW+VBnVr1JLcakJKleqtB7oe4s61Wul2Sve0qzl/yhsjXO+RUenui3lNC6t3rtBxkg/H96u7Sf3FptfZGK0dp06KCOjI9EnFOwfWKy/m7eXtwa26qkPHnhZD/YbrUUbll+2NZJlWSoTHKq6lWpq64k9ali1jvZHHVGN8lVVN6zGRY6syzuTFKPtEfvOJ0ZultSkWj15eXlp1Z71ys7P1aEzx7Xl+O5i2zsyMVqJGSnKyMnS0ZgIBfsHFQYy54dxP58mIT1J3l7euqPH9bqufX8t2rBMj3w484LntxhJ8WmJ+mHfRhmpsLVFiGpVrKYZIx4rbFHiVKtajXUmMVrGuDS623Ua0XGQlm5ZpQmLZik+NUFtw5vJYVm6o8cNmjZ8nEoFBKl8SFk1uqquJOlscpx+ObpDxhhl5GRq45Ft6ly/tWpWuErD2vaVZLT+4FZ1a9hODlnq1aSTZox4VA2r1lGAr58GtOiuljUb6UDUUf1r30YZGX2+ZaViU3/fQ4UBAACA/xRLUvs6LbRk3Dx9PG6eXrxlso7GnNK8lQuUkZOlApdTu04eUHZebvFrBkk/7v9FQb4BGtTqajWoUlvNazTU2gObdCz2lCYunq3E9BQ9es2dGtyql/x9/FQ7rIYaVa2rssGltXjjCqVkpSkpPUWPL3lBb3y/SP/au0EOh5eGte2rmhWuUod6LbXu0FZl/4kvbKhSJkwhgcGqUjZMk4fdr3t73yQvh0OtajdVhZCykiztPLlfGTmZnrskUjLTlJSerHxngU6fO6uE9GTtOnlQ2Xm5OpMUq1IBQcovyFdadoY61mupsf1uUXRyvB56/2ntOnWg2OMB/mr/mTDESNHJcYpNTVCl0PI6cOaYrmnZU10atNXEwfdoWNu+KhdcRqX8g7X7dPE3dViWpaubdNK826cpJCBID77/tKZ+8rKik86naufSE1U6qLS7UYZkSeVCysrP21cZOZmyZOm6dv310i1T5HK5dNs/JmjWl28UPgdDem/Np5ry8UuKiItUbn6uDp45prNJcWpQNfwiwYzR2eQ43fjqgxox90HdOPdB3fvulBLDnL8fzM/HR02q1VOHuq3UNry5UrLSFJ0cJ2OMUrLSFJ+WqCC/QJ0+d1Y5+f//pOECp7PY4ZCbn6uQwFIK9POX0+XyPAPESMrKzZZ34VtwYlPOKSUjTT5e3joae0q5v+FLUT6krIyMUjLPj18+pIza1WmpDnVbqnKZijoSc1KZudl6YcXb+mDdl2pVs7GeufERfTr+dfVr3q1EWOCQCh9WqsIgy9s6H0rJHQUUCQ2MMUU/eliWpRs7DNRLN09WvjNfo994VM+vePOyrV0sSde1O3+7xq3drtU/731e9/e9RWWCQjSgZQ9Py50r9f/hRvEF9PHylkyR/pYlh6PIV8v8/xhGxvNWowsYaemWVXruy/mqUiZMEwbfraWP/kN3Xz3yooWC57YsSUF+AfL38VXzGg3Voe75fZWRm6XopHgdPHtCM758XRVDy2ncgNv1xaNvavzAOxTgFyB/Hz9VDC3vGadauco6FX/Gc6wXDXQKnE5tPrZb5UqVUef6rdWrSScdiDqquLRE+fv4KSSwlGc6rWs31dnkOKVmZ8jXx/f/bzMzUn5BgeehUwAAAMB/k3UHt6j91GvVdspQNXmsn0bPf0THYk95aub/X0MvWn83OnXujCITotWlQRv1aNxBvl4+2h6xV94Obz1z/cOaM3qq+rfoLl9vHxW4ClQ6KESlAoIkWcrKzSl8LIMUl3r+8Qpnk+J0+Oxx9W3WRX2adVGZoFDtiNgnp/P8D9N/Bm+Hl7y9vNSgSrinjp+dl6PT587Kq/B6p+R1ivGsuVGByyljjPJK3PoSl5qoJz89fw0/qvNQffbwfM25daqC/AJ+4xXaH/MfCUOMjKKT47Vk4wq1qtVUZxJj9M3OH/XwwDGqEFpWn236VhMG363D0Se0/tBWz3iWZalOWA1Nv+ER7Tl9WDe//ojWH9rq+VXdyGhnxAE1qFJbzao3kAovVLs1aKucgjwdiDqmRlfV0WOD7tLaA5t051uPa3dhiwT39GeOeEzTrh93/mLQsuTv46cyQaGKL/Ja3aLOX7yfv8B1/7ukiLhIJWWkauaX89V7xi269uV79fWOH/Xz4R3Kdxbops5D1LRafb235lNd06qXejftXDimpQohZdWgSm1ZslSjfFVVL19VJ2JPa3/UMQX6Bahp9fqSJD9vXzWoGq741POhyqQh96p8SBmt2r1e91w9Sq1rNy22TMWdP+QsSXUr1dQdPW7QsdjTWntgs2JSzmlf5BHd8Or96j3zFk395CWtPbBJ8amJurf3KBU4CzT81bG69uX79OP+n3Vbt+GqWeEqqXB//Hx4m2RZGta2r8oEh2hw66vV6rLLciHLstT4qnp6+Jox+mH/Rt319hPae/rwRbd1USEBpdSvWTdtPLxdd771uMa89bjufOtxrdz1k7o2aKuw0uXde/43ByMeRtp58oDyC/J1Q4eBKhdcRt0atFXHuq2K3erza3y9fSRLGtqmt+pUqqH73ntSA2ffoQVrP9fg1r3UoW7LkqMUs/v0ISVmpGj653PVe8YtGjD7di3d8p1+PrpdvRp3VPMajTRq3jj1n3275nzzrtrXaa6qZcJ0Mj5K2yP2qffMW9R75i166tM5WnNgk3aeOlC8/C7cn1tP7NHJ+Ehd166/GlSprQ2HtystK0PHY08pKjFGI+c9pN4zbtEtrz+s73ev09bjexSVGKMaFa5S1TJhkiXVr1Jb5Uq5b1O68m0EAAAA/Ce5rzldxiWnyyWXcV36h84S4lIT9NPBzWpRs5EGt75aR2IidPhshG7qMljVylfRmLcfV9+Zt+qDn5Z66sj7Ig+rwJmvptXrSZYly7L0+ND7NOPGR5WWnaG1BzerVsVqGtz6ap2Mi9Suk39uy4qUrDRl5eZo/veL1HvmLRry4l1a8vMKrT2wSbEp5373vCqGltOwNn31/k+fq8/M0br1jUcV7B+k0d2uk37DNdQf9R8JQ1QYIry/9nOt3LVWd189UgNb9tT2iH3y9fLR+AG3q5R/kF7+5l3l5hdPkbo1aq9q5SqrYZXaWjJurn6atkRrpy3RZw/PV4WQslq27Xtl5+Xogwde1qTB9+iNO5/RqM5DtHDdl9pxcr8GtOhx/u0qNRvr04df10/TPtbaaUu0aOwr8nJ46fS5s7q+/QB9MPZl3XP1KC144GWVLVVaizcs/80729fbW8M7DNDWE3t0LOaUZo54TI8OulNzRk/VI9eMkbe3t8LDauiuXiP12aZv9cb3C7U38rCm3/CwGlQJlySVDg7RW3c/p8eH3qu375mlQL8ALd+2Wj/s26hzaYlaNPYVTRpyjxY9+IpqVqimD9ctVatajTWoVS+9t+ZTTVj8nGJTz2ni4HsU5Ff89hNLko+3j56+fpx+mvaxNj77uf715CKFhZbTxMWzFBEfqW92rlHb8OZ6efRUPdD3Fr12x3R1adBW0clxKhUQrLH9Rmv2qIm6pmUPtarVRIkZyUor8hrgzcd368N1S3VXrxHa++J3eumWKToZf/4hrb/FoFa9FBZaXq1rNdVnD8/37PeFY+fI4XBo5RPva8Mzn3kCCEuFD8atVENfbl2lDYe3aePhbdpweJs+3/ytKoaUV7cGbWWMUeXSFXRdu36SdX57jOw0SM1rNiy5CBdlZHQi7rQW/PSFrm3XT7tf+Eb/vO8Fucz5W40uz2jz0V2yJL1w8xOaOeIxVS0bplu6DNMrhclw14btlJmbrcTLtIAxxmj9wS2KiIvSnNFP6olh9+ntu2dp/IA75O3lrfi0RF3btq8+e/gN3dR5iPo07aICp1M5ebn6fMt36lCnud6//0VNGnyP3r1ntjrVbSXHJUKKlMw0fbd7ndqEN1VuQb42HdslI6NPN32r0IBgLRr7isYPvF0fj3tNw9r1U0RcpL7YvFJhoeX07r3P6/Eh92ne7U+rVEDw+QfBdh2mqH/8ops6Dyk5KwAAAOB/yr/2/awAX381qlpHP+z/Wek5mUrKSJWfj6/6Nu2i8QNv1zM3PqwAHz+1qd1ESZmp2h6xT49ec5eeveERzb3tKd3QfoAORB2TClup5BbkqUXNhvp+7wYlZ175W2SuxOHoCB2OPqEJg+7UpCH36vmbHtekwfcq0Deg5KC/WZvwpnrl1id1X5+bNLLTYJUNClVkQnTJwf5S/5G3yRS15cRuHTxzXE6XU7UqXqWsvBwt3bpKM5a+ruOxp4sNaxW21IhPTdDh6BM6Hntax+NO60TcaR2JOamdJ/crNjVBO08ekNPlVN3KteR0ObVo/TK9/ePHMsYowM9f0UlxOhIT4Rn/eNxpHYmJ0M6I/dofdVRnk2NVqXQF1apwlU7Endbrqz7UxsPbiy3L+YYjDkUlRGvP6UPF+0nKyM1ScmaaEtKTtS/yiP61b6NkpEbV6iozN1vv//S5vtv1k9qGN9ORmAgt2rBMadkZOh57WnkFeYpNOafYlHjtizyqYzEnVb9KuE4nnNU/Vi/W9oh9yszN1s6T+5XvLFC9KrV1LjVJb/3wkTYc3q624U21PWK/Fm9crrz8PO2NPCwVPo+i6EW1JUu5+Xk6HntKx+NO63B0hNbs/0XzvvtAR2NOyhijfZGHFZkQrbDS5RUeVl3rD23Vi1+9reikOG2L2KuUzHRVLVtJV5WrrK3H92jedx/o1Lkzys7P0bYTe+Tj8FadSjX03e6f9PWOH/X5lpVqWbORMnIz9dX2H2VZliLiI7Uv8rCMJIfDoejkOO0p+jYZy1Kgr7/OJsXqaJH9diLutI5En9/vXg4v7T9zVDsi9nvGKx9SVtFJcfpx/y9KK3yFlSTl5OcpPSdTUUmx2hGxT2nZGTqTFKODZ44rIztTWbnZOnjm2P9vK0tyWA6dPndW+9wPJCrstvf0IWXl5ahe5Vpad2izlm75Xp9t/lZhoeUV4OuvjzYul8Ph0JGYkzp45pgKnAVyWA6dSYrVzpP7lZOfq7NJccrNz1ViRrI+27xSh6MjVCY4VA2r1tHR2JOav2qhtp0o8pwVy5LDcigmOb7YW3e2ntijAmeBGlSprYzcLL2/9jN9t/snRSfH60Rc5PnX/YZVV3RynN758RPtPn1QJ2JP6+S5M6pUuoKqlA3Tj/t/0RurFyk6JV4Oy1JkQrT2nj5//LhFnjurlKx0fb9nvdYf3Cojo+SsNB2IOqogvwDVqVRTh6MjNH/Vh4qIj1RcaqJOxJ1W6aAQVQwtq292rtGafb+cf1NUUqwS05O16dhOxV2i9RUAAADwn2fJGKODZ47pSHREyZ6yJDkcXtp96qDOJMaev7axLCVmpGjHyf3KL8jXudQEpedkatfJA/py62pl5GTq0NkTysnLUdPq9VUmKFRLt3xXGGykatPRndp18oASM1JUp1JNeTm8tOCnL/TFlu+UX5Cv1Kx01QmroUqlK+qZL15TcmZqycX6TazCV/9uPrZbiRkpys7L0eaju5RbkK8GVWrLZYw+WLdUC9d/KVP4CIdtJ/Z6HlnhsByKSozWrpMHzt8mb1k6de5MYatzI4fl0LG409p2Yq/2RR5Rgcup+pVry8vhpcUblmnpllXKd1757fR/9G0ylvn1n6+vWNg9bUt2umJeDoe8HN4yxvWbNsClOCyHfLy85TJGBc7839im43wLAYcsOV1OFRQ+EPSPcliWvD3LdOXraFnW+XVxuS5YlvP9fOQyThX8ifeHleTt5X3+QbdOp1zG5eluFa6TVfhMiWL9ZMnH21ufjH9NtStW16lzZ1SuVBlVKROmSR/N1tItqzzD/jcrX6qs3rjzGTWpXl8nYiMV4OOnGhWq6uWv39W7P378m489FW5vL8uhAleBnK7/36a/xnOsXOQY8/byksPyktPl9Dzk9v/7nd+/+c6CK2jRcmnnv8decrpcF8zDx8tblmUpryC/WHcAAADAztx1eCOp4BL1cR9vH0lSfmFdumrZMD19/Xi1C2+uXacO6s63Jl3xLTu/lWf5jCl8puWfM5+i6+1er98i7p1tJTv9Jn+bMAT/uyqVrqCRnQbrqrJhyi3I18bD2/WvfRv+0vDm361K2TBd336AqpWrrAKnU78c2aGVu3+6IBAAAAAAgD+qQkhZjelxowpcBfpy6/c6GR9VcpD/eYQh+K9Q9GGif+Ih97dih3UEAAAA8Pdw/qUf8rxpxm7+aBjyH3uAKuzFXOZtO/8r7LCOAAAAAP4ejAqvP0r2wBUhDAEAAAAAALZCGAIAAAAAAGyFMAQAAAAAANgKYQgAAAAAALAVwhAAAAAAAGArhCEAAAAAAMBWCEMAAAAAAICtEIYAAAAAAABbIQwBAAAAAAC2YhljTMmOAAAAAAAA/6toGQIAAAAAAGyFMAQAAAAAANgKYQgAAAAAALAVwhAAAAAAAGArhCEAAAAAAMBWCEMAAAAAAICtEIYAAAAAAABbIQwBAAAAAAC2QhgCAAAAAABshTAEAAAAAADYCmEIAAAAAACwlf8D4NAMzO3AUgAAAAAASUVORK5CYII=;" vertex="1" parent="1">
          <mxGeometry x="410" y="280" width="1091" height="582" as="geometry" />
        </mxCell>
        <mxCell id="OgK19WpjJ4sju14JBqMn-2" value="" style="rounded=0;whiteSpace=wrap;html=1;strokeOpacity=100;fillOpacity=0;" vertex="1" parent="1">
          <mxGeometry x="400" y="270" width="1100" height="80" as="geometry" />
        </mxCell>
        <mxCell id="OgK19WpjJ4sju14JBqMn-3" value="&lt;font style=&quot;font-size: 30px;&quot;&gt;thẻ nav: display: flex, justify-content: space-between&lt;/font&gt;" style="text;html=1;align=center;verticalAlign=middle;whiteSpace=wrap;rounded=0;" vertex="1" parent="1">
          <mxGeometry x="440" y="210" width="530" height="30" as="geometry" />
        </mxCell>
        <mxCell id="OgK19WpjJ4sju14JBqMn-4" value="" style="rounded=0;whiteSpace=wrap;html=1;strokeOpacity=100;fillOpacity=0;" vertex="1" parent="1">
          <mxGeometry x="414" y="280" width="206" height="60" as="geometry" />
        </mxCell>
        <mxCell id="OgK19WpjJ4sju14JBqMn-5" value="&lt;font style=&quot;font-size: 30px;&quot;&gt;Thẻ h3 con&lt;/font&gt;" style="text;html=1;align=center;verticalAlign=middle;whiteSpace=wrap;rounded=0;" vertex="1" parent="1">
          <mxGeometry x="170" y="295" width="230" height="30" as="geometry" />
        </mxCell>
        <mxCell id="OgK19WpjJ4sju14JBqMn-6" value="" style="rounded=0;whiteSpace=wrap;html=1;strokeOpacity=100;fillOpacity=0;" vertex="1" parent="1">
          <mxGeometry x="1230" y="280" width="260" height="60" as="geometry" />
        </mxCell>
        <mxCell id="OgK19WpjJ4sju14JBqMn-7" value="&lt;font style=&quot;font-size: 30px;&quot;&gt;thẻ ul, li&lt;/font&gt;" style="text;html=1;align=center;verticalAlign=middle;whiteSpace=wrap;rounded=0;" vertex="1" parent="1">
          <mxGeometry x="1510" y="295" width="60" height="30" as="geometry" />
        </mxCell>
        <mxCell id="OgK19WpjJ4sju14JBqMn-8" value="" style="rounded=0;whiteSpace=wrap;html=1;strokeOpacity=100;fillOpacity=0;" vertex="1" parent="1">
          <mxGeometry x="420" y="350" width="1060" height="450" as="geometry" />
        </mxCell>
        <mxCell id="OgK19WpjJ4sju14JBqMn-9" value="&lt;font style=&quot;font-size: 30px;&quot;&gt;Thẻ main&lt;/font&gt;&lt;div&gt;&lt;span style=&quot;font-size: 30px;&quot;&gt;flex, space-evenly&lt;/span&gt;&lt;/div&gt;" style="text;html=1;align=center;verticalAlign=middle;whiteSpace=wrap;rounded=0;" vertex="1" parent="1">
          <mxGeometry x="120" y="560" width="270" height="30" as="geometry" />
        </mxCell>
        <mxCell id="OgK19WpjJ4sju14JBqMn-11" value="&lt;font style=&quot;font-size: 30px;&quot;&gt;3 thẻ section&lt;/font&gt;&lt;div&gt;&lt;span style=&quot;font-size: 30px;&quot;&gt;width: 30%&lt;/span&gt;&lt;/div&gt;" style="text;html=1;align=center;verticalAlign=middle;whiteSpace=wrap;rounded=0;" vertex="1" parent="1">
          <mxGeometry x="210" y="620" width="190" height="130" as="geometry" />
        </mxCell>
        <mxCell id="OgK19WpjJ4sju14JBqMn-12" value="" style="rounded=0;whiteSpace=wrap;html=1;strokeOpacity=100;fillOpacity=0;" vertex="1" parent="1">
          <mxGeometry x="390" y="800" width="1120" height="60" as="geometry" />
        </mxCell>
        <mxCell id="OgK19WpjJ4sju14JBqMn-13" value="&lt;font style=&quot;font-size: 30px;&quot;&gt;thẻ footer: display: flex, justify-content: space-between&lt;/font&gt;" style="text;html=1;align=center;verticalAlign=middle;whiteSpace=wrap;rounded=0;" vertex="1" parent="1">
          <mxGeometry x="685" y="890" width="530" height="30" as="geometry" />
        </mxCell>
      </root>
    </mxGraphModel>
  </diagram>
</mxfile>
